<svg xmlns="http://www.w3.org/2000/svg" viewBox="0 0 400 400" width="400" height="400">
<path d="M400 200A200 200 0 0 1 200.21119 399.99989 200 200 0 0 1 .000448 200.42237 200 200 0 0 1 199.36645 .001001 200 200 0 0 1 399.99821 199.15526"/>
<path d="M373.57014 200A173.57014 173.57 0 0 1 200.18327 373.56991 173.57014 173.57 0 0 1 26.430248 200.36655 173.57014 173.57 0 0 1 199.45017 26.430864 173.57014 173.57 0 0 1 373.56859 199.26689" fill="#fff"/>
<path d="m311.92 61.18h-48.775v120.41l-94.84-120.41h-61.45l205.07 277.64v-277.64m-223.5 0l-.347 277.64h47.39v-128.37l99.07 128.37h61.24"/>
</svg>