<svg xmlns="http://www.w3.org/2000/svg" viewBox="0 0 336 336" width="400" height="400" xmlns:xlink="http://www.w3.org/1999/xlink">
<defs>
<filter height="1.062" y="-.031" width="1.062" x="-.031" id="0" color-interpolation-filters="sRGB">
<feGaussianBlur stdDeviation="13.68732"/>
</filter>
<radialGradient gradientTransform="matrix(1.10161 0 0 1.08048 378.06 338.21)" gradientUnits="userSpaceOnUse" r="152.85" cy="-157.53" cx="-191.16" id="1">
<stop stop-color="#03d6ed"/>
<stop stop-color="#03d6ed" offset=".333"/>
<stop stop-color="#17446e" offset="1"/>
</radialGradient>
</defs>
<path d="M320.33267 167.99761A152.85001 152.85001 0 0 1 167.64407 320.84753 152.85001 152.85001 0 0 1 14.63301 168.3204 152.85001 152.85001 0 0 1 166.99847 15.14837 152.85001 152.85001 0 0 1 320.33131 167.35202" fill="url(#1)"/>
<path d="m257.41 52.26l5.908-1.935c7.55-2.473 11.355-3.199 17.806-3.394 5.886-.178 9.469.294 14.248 1.878 12.02 3.984 19.673 11.265 30.09 28.625 2.758 4.595 10.512 19.337 10.512 19.985 0 .123-1.789-1.52-3.975-3.651-6.15-5.996-11.371-9.815-17.359-12.698-4.944-2.38-7.78-3.102-12.266-3.12-3.503-.014-3.916.048-6.259.936-4.064 1.54-6.941 3.468-6.941 4.651zm-82.991 205.72c-24.07-1.186-51.38-.832-73.65-11.959-16.527-12.72-22.343-13.984-14.569-19.419 29.417-23.517 64.711-59.31 87.01-87.01 20.78-25.816 35.757-41.752 41.735-56.1 4.379-10.509 6.342-19.05 5.543-27.29-.763-7.873-4.249-15.05-8.518-21.43-.922-1.377-.465-4-.397-4.07.313-.313 11.246 3.235 17.02 5.508 4.179 1.644 12.772 5.827 17.1 8.323 1.65.952 4.999 3.065 7.442 4.696 0 0 3.092 1.805 4.442 2.966 11.773 10.123 22.617 19.568 31.766 31.28 1.191 1.525 1.328 2.596 2.951 4.998 6.08 9 12.533 20.874 15.579 28.668 2.554 6.535 6.393 23.376 7.693 33.75.996 7.947 1.187 11.276 1.207 21 .021 10.566-.487 19.484-1.211 21.251-.225.55-1.545 2.508-2.931 4.35-9.391 12.475-22.719 24.961-36.646 34.33-5.845 3.932-10.363 6.516-17.692 10.119-11.429 5.618-17.885 7.916-29.85 10.625-20.01 4.53-37.12 6.245-54.03 5.412m27.927-13.638c12.599-1.116 24.439-3.387 34.2-6.559 12.194-3.962 25.23-11.06 38.04-20.721 12.01-9.05 25.359-21.956 29.07-28.09 1.254-2.073 2.027-11.397 1.803-21.725-.221-10.172-1.224-17.923-3.551-27.45-5.39-22.06-17.893-45.43-32.13-60.06-2.669-2.742-4.168-3.839-5.249-3.841-.421 0-2.257 1.356-4.97 3.674-2.366 2.02-6.925 5.912-10.132 8.647-3.207 2.734-6.91 5.965-8.23 7.179-5.856 5.385-21.719 20.658-29.44 28.346-7.479 7.447-8.551 8.634-9.415 10.426-.894 1.854-.963 2.203-.83 4.2.131 1.971.373 2.648 2.548 7.128 5.712 11.765 8.56 20.371 8.544 25.816-.022 7.237-2.516 15.204-6.559 20.951-1.98 2.815-5.905 6.516-8.874 8.367-4.919 3.068-9.84 4.566-14.998 4.566-5.57 0-9.05-1.635-14.03-6.6-1.79-1.782-3.981-4.355-5.04-5.925-1.034-1.526-2.041-2.775-2.238-2.775-.492 0-41.909 41.45-41.909 41.943 0 .483 2.776 1.763 7.978 3.678 13.528 4.979 30.425 8.225 48.27 9.272 6.143.36 20.764.121 27.15-.445m-19.275-48.959c.206-.277.375-.761.375-1.076 0-3.5-9.147-10.784-14.11-11.234-1.61-.146-1.763-.104-2.238.621-.429.655-.454.945-.158 1.843 1.07 3.242 7.512 8.544 12.267 10.1 1.865.609 3.288.516 3.86-.251m16.382-32.901c.543-.227 1.421-.936 1.951-1.575 3.216-3.882 1.956-11.288-2.19-12.871-1.804-.689-3.182-.398-4.728.999-2.949 2.664-3.426 7.857-1.045 11.357 1.552 2.282 3.736 3.041 6.01 2.09" fill="#08344e"/>
<g transform="matrix(.29953 0 0 .29949 7.423 7.9)" filter="url(#0)">
<path d="m411.81 22.78c159.89-40.13 339.73 3.812 464.25 111.98-13.45 4.33-26.75 8.579-40.19 12.979-45.01-32.08-97.21-58.27-151.04-71.44 14.19 18.85 25.83 40.09 30.46 63.43 8.3 38.94-.98 79.26-16.35 115.24-23.13 53.51-57.89 100.84-92.93 147.05-96.72 127.76-212.43 240.32-336.89 340.78 118.02 75.45 262.96 108.2 401.75 86.99 32.19-4.5 64-11.43 95.46-19.49 105.16-32.81 199.23-101.28 262.47-191.45 9.62-72.49 3.64-147.05-14.84-217.85-11.2-55.31-44.52-102.7-73.04-149.83 7.64-7.03 16.728-14.255 27.08-15.755 82.31 118.08 111.96 272.73 80.49 413.01-26.02 119.84-96.06 229.21-193.38 303.69-53.3 40.99-114.49 71.75-179.31 89.68-135.63 38.16-286.37 19.02-407.61-52.96-101.79-59.5-182.44-154.16-224.85-264.19-.72-2.87-3.92-6.68-.75-9.06 86.65-85.35 173.1-170.9 259.99-256 60.44-60.99 111.56-130.48 159.34-201.61 19.67-30.5 39.85-60.94 55.11-93.95 13.69-31.74 19.82-71.46-.08-101.99-23.28-33.05-67.86-38.1-105.14-39.25m348.62 899.62c-72.39 30.17-151.39 41.7-229.48 41.24-134.97-1.51-265.02-55.2-374.08-132.35 36.86 42.82 78.76 81.81 126.31 112.56 80.92 52.68 179.89 75.2 275.74 69.32 136.14-8.62 269.04-75.2 351.26-185.02-45.16 38.2-94.75 71.88-149.75 94.25z" id="2"/>
<path d="m91.61 249.61c56.97-88.7 141.16-159.49 238.29-200.46-54.19 35.65-109.12 74.06-146.56 128.22-32.05 45.41-45.89 103.46-37.01 158.37 8.82 51.24 38.31 96.89 75.52 132.22-66.37 62.92-132.47 127.07-199.52 188.74-33.39-137.62-8.04-288.35 69.28-407.09" id="3"/>
</g>
<g transform="matrix(.29953 0 0 .29949 7.423 7.9)" fill="#fff">
<use xlink:href="#2"/>
<use xlink:href="#3"/>
</g>
</svg>