<?xml version="1.0" encoding="utf-8"?>
<!-- Generator: Adobe Illustrator 16.0.0, SVG Export Plug-In . SVG Version: 6.00 Build 0)  -->
<!DOCTYPE svg PUBLIC "-//W3C//DTD SVG 1.1//EN" "http://www.w3.org/Graphics/SVG/1.1/DTD/svg11.dtd">
<svg version="1.1" id="Layer_1" xmlns="http://www.w3.org/2000/svg" xmlns:xlink="http://www.w3.org/1999/xlink" x="0px" y="0px"
	 width="240.307px" height="168.27px" viewBox="79.994 116.105 240.307 168.27"
	 enable-background="new 79.994 116.105 240.307 168.27" xml:space="preserve">
<g>
	<g>
		<g>
			<g>
				<path fill="#FFFFFF" d="M79.994,237.521v-1.403c0-27.267,4.651-50.546,13.825-69.189c7.373-14.983,17.656-27.011,30.566-35.755
					c21.877-14.821,44.337-15.069,44.561-15.069h115.783v1.399c0,27.27-4.517,50.546-13.416,69.181
					c-7.151,14.978-17.131,27.01-29.666,35.758c-21.239,14.826-43.067,15.078-43.286,15.078h0.002H79.994z M169.193,145.155
					c-1.62,0.086-16.221,1.126-30.195,11.35c-8.25,6.039-14.893,14.359-19.734,24.728c-3.449,7.387-6.056,15.959-7.749,25.48
					l-0.292,1.648h86.785h0.037c1.525-0.079,15.291-1.065,28.508-11.087c7.932-6.012,14.331-14.32,19.016-24.697
					c3.363-7.446,5.898-16.084,7.543-25.674l0.281-1.64l-84.164-0.109L169.193,145.155z"/>
			</g>
			<g>
				<path fill="#9DC83E" d="M114.562,284.375v-1.994c0-27.188,4.61-50.424,13.705-69.062c7.353-15.069,17.638-27.192,30.572-36.025
					c9.33-6.375,19.79-10.914,31.089-13.489c8.667-1.974,14.785-2.031,15.455-2.031h114.916v30.233H207.994l-0.29-0.005
					c-4.702,0-46.04,1.701-56.503,60.589l-0.292,1.648h133.095v-41.842h36.297v71.979H114.562z"/>
			</g>
			<path fill="#FFFFFF" d="M280.212,160.642l-30.245-0.063c-1.176,3.826-2.881,8.637-4.398,11.998
				c-3.442,7.628-8.055,14.423-13.279,19.725l36.082,0.066c0.951-1.73,2.074-3.865,2.941-5.683
				C274.919,179.133,278.055,169.675,280.212,160.642z"/>
		</g>
	</g>
</g>
</svg>
