<?xml version="1.0" encoding="UTF-8" standalone="no"?>
<!-- Created with Inkscape (http://www.inkscape.org/) -->

<svg
   xmlns:dc="http://purl.org/dc/elements/1.1/"
   xmlns:cc="http://creativecommons.org/ns#"
   xmlns:rdf="http://www.w3.org/1999/02/22-rdf-syntax-ns#"
   xmlns:svg="http://www.w3.org/2000/svg"
   xmlns="http://www.w3.org/2000/svg"
   version="1.1"
   width="576.90625"
   height="601.125"
   id="svg2"
   style="enable-background:new">
  <defs
     id="defs4" />
  <metadata
     id="metadata7">
    <rdf:RDF>
      <cc:Work
         rdf:about="">
        <dc:format>image/svg+xml</dc:format>
        <dc:type
           rdf:resource="http://purl.org/dc/dcmitype/StillImage" />
        <dc:title></dc:title>
      </cc:Work>
    </rdf:RDF>
  </metadata>
  <g
     transform="translate(-83.125,-100.4375)"
     id="layer3"
     style="display:inline">
    <path
       d="m 83.792153,179.30628 5.739097,-3.4441 5.96875,-3.0625 3.9375,-1.8125 6.0625,-3.0625 9.03125,-4 5.9375,-2.90625 9.09375,-4.125 6.9375,-3 5.25,-2 7.75,-3 7.09375,-2.875 5.40625,-2.0625 10.5625,-4 5.71875,-2 6.09375,-1.9375 6.1875,-1.9375 11.9375,-4.125 7,-2.0625 9.46875,-2.96875 9.9375,-2.96875 7.4375,-1.96875 8.0625,-1.96875 8.1875,-2.125 7.90625,-1.90625 9.34375,-2.0625 9.8125,-1.9375 10.53125,-2.0625 12.1875,-1.875 7.65625,-1.09375 7.5,-1 9.90625,-0.96875 11.40625,-1.0625 22.9375,-0.9375 21,-0.0625 23.03125,1.0625 20.625,2.09375 21.6875,2.90625 17.21875,3.03125 14.125,3.03125 8.8125,2 16,3.875 14,4.125 14.125,4 8.75,2.90625 10.21875,3.125 8.15625,3.0625 10.875,3.84375 10.90625,4.09375 8.125,3.03125 6.875,2.78125 10.03125,4.4375 9.15625,3.75 9,4 8.8125,3.84375 11.125,5.5 9.96875,5.28125 4.9375,2.71875 -175.09375,302.21875 148.17188,-34.70312 0.0117,133.98437 0.004,0.56641 -237.9603,56.41813 -23.24614,39.57588 -17.78816,-30.00784 -227.02103,53.44742 -0.44085,-134.49954 159.44085,-38.03952 -9.64843,-15.4375 -7.35157,3.99219 -7.95312,4 -4,2 -4.01563,2 -9.03125,4 -6.96875,2.96875 -5.07812,2.03125 -2.92188,0.96875 -3.01562,1.01562 -6.07813,2.04688 -3.875,0.9375 -4.04687,1.03125 -4.96875,-0.0312 -5.96875,-1.01563 -3.10938,-0.96875 -5.89062,-1.95312 -5.0625,-2.10938 -3.92188,-1.96875 -5.35937,-2.96875 -3.73438,-2.39062 -4.01562,-2.6875 -2.96875,-1.9375 -3.01563,-2.04688 -4,-3.03125 -3,-1.92187 -5.9375,-4.96875 -2.98437,-2.9375 -3.98438,-3.15625 -2.07812,-2 -3.89063,-2.95313 -5.17187,-4 -1.96875,-1.01562 -1.90625,-1.01563 -2.09375,-0.9375 -3.92188,-0.98437 -4.01562,-2.01563 -3.0625,-2.98437 -2.90625,-4 -2.03125,-2.98438 -2,-4.03125 -2.04688,-3.96875 -0.98437,-2.04687 -1,-2.92188 -0.64063,-5.14062 0.0469,-2.9375 0.60937,-6.96875 0.98438,-4 1.01562,-3.04688 1.03125,-3.96875 2,-5.03125 1.98438,-4.9375 2.04687,-5.04687 0.95313,-3 1.98437,-4.9375 1,-3.03125 2.01563,-7.03125 1.28125,-4.01563 0.70312,-2.90625 0.96875,-4.0625 1.48438,-4.125 1.9375,-5.96875 0.60937,-1.98437 2.04688,-3.98438 1.95312,-3.98437 2,-4.01563 1.25,-1.96875 1.70313,-3.09375 2.07812,-3.89062 2.01563,-2.92188 1.90625,-3.0625 1.07812,-1.98437 0.96875,-1.98438 2.32813,-4.125 1.71875,-3.875 1.15625,-4.60937 0.0156,-0.70313 -1.1875,-2.8125 -1.10937,-2.90625 -0.9375,-3.03125 -1.03125,-3 -0.92188,-2.98437 0.0156,-0.9375 0.98437,-3 2.0625,-4.10938 1.92188,-3.92187 2.04687,-4.09375 3.90625,-6.9375 z"
       id="path3891"
       style="fill:#1b0e00;fill-opacity:1;stroke:#000000;stroke-width:1px;stroke-linecap:butt;stroke-linejoin:miter;stroke-opacity:1" />
  </g>
  <g
     transform="translate(-83.125,-100.4375)"
     id="layer2"
     style="display:inline">
    <path
       d="m 158.84375,321.54968 3.1875,-4.59375 2.9375,-4.3125 2.96875,-4.125 3.09375,-4.53125 3.34375,-3.9375 2.625,-3.375 5.0625,-6.03125 3.09375,-3.25 3.21875,-3.53125 3.53125,-4.34375 2.15625,-1.9375 4.375,-4.71875 3.375,-3.34375 2.9375,-2.78125 3.9375,-3.1875 3.40625,-3.1875 3,-2.96875 6.71875,-5.875 4.53125,-3.53125 3.84375,-2.875 c 0,0 4.09375,-3 4.21875,-3.09375 0.125,-0.0937 3.375,-2.28125 3.375,-2.28125 l 3.84375,-2.65625 3.46875,-2.0625 6.375,-3.875 4,-2.125 3.9375,-1.9375 6.09375,-3 5,-1.96875 6.875,-3.0625 4.75,-1.625 3.8125,-1.25 6.375,-1.8125 7.03125,-1.90625 7.9375,-2.0625 4.65625,-0.9375 4.96875,-0.71875 2.875,-0.15625 1,0.8125 0.1875,3.03125 -0.875,3.5625 -1,3.125 -2.34375,6.0625 -0.875,2.84375 -3.29626,9.75765 4.45251,-8.38265 0.9375,-1.375 2.8125,-4.34375 2.09375,-3.625 3.25,-4.84375 3.90625,-5.875 c 0,0 2.9375,-5.28125 3.125,-5.40625 0.1875,-0.125 2.6875,-3.5625 2.6875,-3.5625 l 2.125,-3.03125 3.03125,-3.96875 2.0625,-2.8125 2.375,-3.09375 1.6875,-2.0625 2.125,-3.03125 3.28125,-4 3.34375,-2.75 1.96875,-0.84375 3.5625,-1.125 0.875,0 3.75,1.03125 3.09375,0.84375 5.03125,1.96875 4.59375,2.0625 5.3125,2.1875 5.1875,2.09375 5.0625,3 5.03125,3.1875 2.8125,2.40625 2.21875,2.5625 1.96875,3.03125 0.5,4.28125 -0.5625,4.5 -2.40625,7.1875 -2.03125,4.96875 -1.125,3.8125 -0.90625,3.59375 -1.25,5 -1.0625,5.75 -0.1875,5.03125 -0.46875,6.03125 0.125,5.5 0.8125,4.34375 2.04013,7.64277 0.30362,-11.45527 0.9375,-5 1.0625,-4.75 0.875,-3.84375 1,-3.4375 0.8125,-3.46875 2.1875,-6.375 1.03125,-3.4375 1.96875,-5.59375 1.71875,-5.21875 2.09375,-5.34375 2.15625,-4.46875 2.03125,-0.96875 4.8125,0.34375 7.125,0.875 8.71875,0.96875 6.5,1.0625 6,1.125 5.875,0.875 5.84375,1.0625 5.375,0.9375 4.875,0.96875 3.65625,0.96875 0.6875,1.46875 -1.6875,1.6875 -4.1875,2.78125 -3.15625,2.625 -3,2.75 -0.46875,1 1.25,1.03125 7.03125,2.15625 12.53125,3.5 5.96875,2.09375 6.65625,2.03125 6.65625,2 7.09375,2.125 5.78125,2 5.96875,2 6.28125,2.0625 1.75,0.90625 0.125,1.09375 -1.46875,1.78125 -4.65625,4.75 c 0,0 -0.4375,0.78125 -0.0937,0.75 0.34375,-0.0312 1.28125,0.625 1.28125,0.625 l 5.96875,2.125 7.71875,2.8125 6.3125,2.03125 8.25,3.15625 5.65625,1.84375 5.03125,1.9375 2.625,1.53125 0.375,0.875 c -35.33921,62.87455 -75.89503,131.36313 -108.7402,186.90441 l -4.2598,-1.87316 -3.53125,-1.03125 -4.625,-0.78125 -15.09375,-0.875 -11.96875,0.0937 -14.125,1.03125 -14.84375,1.90625 -9.40625,2.03125 -8.375,1.96875 -8.21875,3 -5.34375,2.03125 -1.6875,1.125 -1,0.8125 1.21875,2.40625 3,3.96875 2.71875,3.625 1.5625,2.5625 1.15625,0.96875 1.03125,1.5 -0.40625,1.1875 -2.6875,0.75 -6.125,1.1875 -5.5,1.0625 -10.96875,1.8125 -5.375,1.21875 -7.65625,1.71875 -6.1875,1.96875 -5.8125,2.21875 -3.84375,1.96875 -4.15625,2.0625 -2.34375,1.1875 -2.71875,-2.0625 -0.875,-1.96875 2.84375,-2.5 5.71875,-2.625 3.6875,-2.15625 5.15625,-2.28125 5.90625,-2.75 5.3125,-1.9375 c 0,0 4.25,-1.90625 4.5,-1.96875 0.25,-0.0625 4.21875,-1.15625 4.21875,-1.15625 l 3.03125,-0.4375 3.6875,-1.3125 -1.09375,-2.4375 -1.84375,-2.75 -2.1875,-1.75 -2.125,-2.40625 1.09375,-1.90625 3.09375,-2.125 5.8125,-3.8125 6.375,-2.875 5.8125,-2.96875 5.53125,-1.90625 c 0,0 8.5,-3.375 8.8125,-3.375 0.3125,0 7.03125,-2.0625 7.03125,-2.0625 l 7.59375,-1.75 3.78125,-1.09375 4.875,-1 c 0,0 4.96875,-0.875 5.21875,-0.875 0.25,0 5.9375,-1.0625 5.9375,-1.0625 l 6.15625,-0.84375 8.03125,-1.1875 8.1875,-1.15625 9.25,-0.625 c 0,0 1.65625,-0.3125 2.1875,-0.15625 0.53125,0.15625 2.625,-2.09375 2.625,-2.09375 l 6.71875,-6.78125 3.53125,-3.625 3,-4.0625 2.53125,-3.9375 2.15625,-4.0625 c 0,0 1.875,-4.65625 2.15625,-4.8125 0.28125,-0.15625 1.8125,-5.78125 1.8125,-5.78125 0,0 1.15625,-4.46875 1.15625,-4.59375 0,-0.125 0.625,-6.9375 0.625,-6.9375 l 0.15625,-9.03125 -0.0312,-10.90625 -2.125,-7.9375 -1.3125,-4.40625 -2.6875,-5.875 -2.4375,-5.75 -2.625,-4.1875 -2.875,-5.34375 -3.03125,-4.9375 -2.5625,-3.9375 -2.34099,-4.94086 1.46599,6.84711 0.75,3.78125 1.53125,6.34375 1.375,7.6875 0.875,4.3125 0.96875,4.75 1.09375,5.71875 1,5.59375 0.9375,7.34375 0.21875,5.65625 -1.15625,5.3125 -1.0625,3.46875 -2.84375,6.625 -2.25,3.78125 -2.875,3.65625 -8.65625,8.5 -6.21875,4.40625 -5.125,3.28125 -4.78125,1.96875 -10,1.96875 -9.125,1.96875 -9.09375,2.21875 -7.9375,1.96875 -10.78125,2.71875 -20.25,6.75 -8.0625,3.25 -6.5625,3.1875 -8.28125,4.25 -5.5,3.5 -3.78125,2.84375 -3.09375,2.3125 -2.4375,2 0.59375,1.40625 2.25,1.34375 1.3125,0.75 1.15625,0.84375 -2.0625,1.8125 -3.75,2.78125 -6.375,4.625 -5.78125,3.875 -10.1875,6.5625 -5.46875,3.78125 -5,3.15625 -6.84375,4.09375 -9.8125,5.71875 -7.4375,4.09375 -8.125,4 -9.65625,4.90625 -6.3125,3.125 -5.40625,2.65625 -7.1875,3 -4.34375,1.46875 -3.5,1.21875 -4.1875,1.40625 c 0,0 -5,0.28125 -5.15625,0.25 -0.15625,-0.0312 -10.8125,0.0625 -10.8125,0.0625 l -5.375,-2.46875 -2.09375,-1.625 -1.9375,-2.625 c 0,0 0.96875,-1.03125 1.21875,-1.125 0.25,-0.0937 3.46875,-0.0625 3.625,-0.0625 0.15625,0 5.15625,-1.0625 5.15625,-1.0625 l 4.71875,-1.15625 6.09375,-1.6875 8.78125,-3.59375 5.78125,-2.625 6.0625,-2.875 5.90625,-3.25 6.1875,-3.90625 3.625,-2.6875 3.28125,-2.34375 4.40625,-4.03125 17.25,-16.84375 3.5625,-4.46875 4.5,-5.53125 4.40625,-5.5 6.09375,-7.21875 c 0,0 8.875,-9.8125 8.96875,-9.9375 0.0937,-0.125 7.625,-8.375 7.625,-8.375 l 5.53125,-5.625 8.59375,-6.6875 7.3125,-5.5 3.46875,-2.25 6.0625,-3.9375 3.71875,-2.0625 4.53125,-2 c 0,0 5.3125,-2.75 5.5625,-2.78125 0.25,-0.0312 3.03125,-1.09375 3.03125,-1.09375 l 7.875,-3.125 c 0,0 6.9375,-1.84375 7.3125,-1.875 0.375,-0.0312 7.125,-1.0625 7.5,-1.09375 0.375,-0.0312 13.1875,0.125 13.1875,0.125 l 5.34375,1.125 -1.90625,-3.875 -3.5625,-8.03125 -3.46875,-6.84375 -3.4375,-7.96875 -3.21875,-6.59375 -3.5,-6.40625 -3.25,-5.25 -1.9375,-3.65625 -0.009,-1.42586 3.32138,1.01961 4.03125,3.375 3.84375,3.3125 6.46875,5.78125 5.0625,4.4375 -5.4375,-6.46875 -7.125,-8.03125 -11.59375,-12.96875 -6.0625,-5.59375 -8.03125,-5.625 -4.71875,-2.15625 -4.09375,-1.21875 -5.71875,-0.0625 -5.21875,1.1875 -4.28125,1.21875 -6.1875,2.71875 -6.1875,3.75 -4.15625,2.53125 -3.96875,2.96875 -4.1875,3.09375 -8.75,6.84375 7.1875,-4.28125 5.40625,-2 c 0,0 4.78125,-2 4.9375,-2 0.15625,0 3.1875,-1.15625 3.375,-1.15625 0.1875,0 6.59375,-1.8125 6.59375,-1.8125 l 3.71875,-0.26164 c 0,0 0.9375,0.79289 0.9375,0.91789 0,0.125 -3.9375,2.5 -3.9375,2.5 l -4.0625,1.71875 -4.0625,2.21875 -5.1875,3 -5.8125,4.65625 -3.65625,2.875 -3.5625,3.625 -4.75,4.84375 -5.96875,7.34375 -2.78125,3.25 -3.125,4.90625 -2.65625,4.5 -4.5,7.28125 -2.15625,4.5 -2.71875,5.75 -2.125,4.5 -1.59375,3.4375 -2.625,6.375 -0.9375,3.25 -1.1875,3.6875 -1.71875,4.40625 -2.46875,4.90625 -1.6875,5 -2.71875,6.03125 -2.4375,4.5625 -2.78125,5.78125 -1.84375,4.8125 -2.125,3.9375 -2,4.3125 -2.90625,5.53125 -2.375,4.15625 -3.8125,6.875 -3.21875,5.09375 -3.9375,5.78125 -4.0625,5.5 -6.28125,6.03125 -6.71875,4.71875 -6.65625,2.75 -3.75,1.15625 -6.90625,0.9375 -8.5625,-0.1875 -4.84375,-1.4375 -3.15625,-3.96875 -2.5,-4.53125 -2.96875,-5.28125 -2.34375,-6.84375 -1.34375,-5.78125 -0.25,-4.3125 2.625,-4.75 4.9375,-4.625 c 0,0 3.78125,-1.5 3.90625,-1.65625 0.125,-0.15625 2.21875,-0.59375 2.5,-0.59375 0.28125,0 3.125,-0.125 3.125,-0.125 l -0.15625,-6.53125 -1.75,-4.125 -1.71875,-4.84375 -2.625,-3.90625 -3.59375,-4.4375 -3.6875,-2.375 -2.875,-0.875 -17.21875,0.0937 -6.0625,1.09375 -5.25,1.28125 -7.8125,1.875 -5.9375,1.71875 c 0,0 -3.46875,1.34375 -3.71875,1.5 -0.25,0.15625 -1.55622,0.73928 -1.74372,0.73928 -0.1875,0 -1.06434,-2.38389 -1.06434,-2.38389 l 0.58298,-4.8822 0.19378,-3.06694 1.15625,-3.0625 2.0625,-4.65625 1.0625,-2.53125 0.9375,-3.09375 2.125,-5.8125 1.40625,-3.40625 1.40625,-5.9375 2.25,-5.40625 1.125,-4.15625 1.84375,-5.03125 3.96875,-9.65625 2.90625,-6.4375 2.6875,-4.5 4.96875,-8 4.71875,-7.5625 4.75,-6.46875 2.75,-3.6875 4.09375,-5.15625 2.03125,-3.375 -0.0625,-3.375 -1.25,-3.5 -2.40625,-5.53125 -1.78125,-3.1875 -1.90625,-3.0625 z"
       id="path3857"
       style="fill:#ffffff;stroke:#000000;stroke-width:1px;stroke-linecap:butt;stroke-linejoin:miter;stroke-opacity:1" />
  </g>
  <g
     transform="translate(-83.125,-100.4375)"
     id="layer4">
    <path
       d="m 129.44473,195.0836 6.80591,-3.7786 7.18155,-3.73441 4.75087,-2.20971 5.03814,-1.98874 8.57367,-4.15425 8.3085,-3.49134 7.73399,-3.0494 5.2591,-2.16551 7.55721,-2.91682 7.69008,-3.04514 8.1875,-3.15625 6,-2.0625 6.03125,-2.09375 5.96875,-2.0625 6,-2.1875 9.78125,-3.0625 7.03125,-2 6.9375,-1.96875 10.9375,-2.96875 8.28125,-2 4.78125,-1.03125 14.0625,-3.09375 15.9375,-2.84375 6.125,-0.96875 7,-1.09375 8.03125,-0.9375 9.9375,-1.125 15.78125,-0.84375 15.9375,-1.03125 3,0.0312 17.21875,0.9375 13.4375,1.0625 9.875,0.9375 8.125,1 13.34375,2 10.5625,2.15625 10.5,1.84375 8.5625,1.9375 9,2.125 10.875,2.9375 7.1875,2.03125 9.8125,3.03125 9.9375,2.9375 6,1.96875 6,2.0625 6.15625,2.0625 7.78125,2.875 4.9375,1.9375 6.15625,2.0625 4.90625,2.0625 7.25,2.96875 6.75,3 7.09375,2.9375 7.03125,3.15625 3.78125,1.84375 4.0625,1.96875 6.09375,3.03125 5.9375,2.9375 4.0625,2.125 3.90625,1.90625 2.625,1.375 -21.9375,36.65625 -14.5625,-4.03125 -11.875,-3 -9,-2.0625 -13.25,-3.3125 -11.84375,-3 -9.1875,-2.0625 -7.9375,-2 -5.5,-1.375 -4.5,-0.84375 -0.96875,-2.25 3.75,-5.0625 4.0625,-4.9375 0.625,-0.625 -2.4375,-1.40625 -6.65625,-1.8125 -10.03125,-2.625 -7.46875,-2.3125 -11.875,-2.15625 -11.09375,-2.09375 -9.21875,-1.03125 -9.875,-1.4375 -5.8125,-0.6875 -11.125,-0.84375 -13,-0.9375 -1.96875,-1.21875 -4.90625,-3.71875 -5,-3.15625 -4,-1.875 -5.375,-3 -5.75,-3.09375 -4.78125,-3.03125 -4.9375,-1.96875 -5.28125,-1.8125 -6.875,-1.0625 -6.6875,1.28125 -4.78125,1.9375 -4.25,3.34375 -4.1875,5.03125 -4.625,6.15625 -1.9375,3.53125 -2.25,2.0625 -6.3125,1.59375 -7.78125,1.875 -10.78125,3.1875 -10.21875,3.40625 -10.625,3.90625 -8.3125,3.46875 -5.15625,2.53125 c 0,0 -3.875,2.1875 -4.03125,2.1875 -0.15625,0 -1,-0.0937 -1,-0.0937 l -3.125,-3.3125 -3,-1.78125 -6.1875,-0.875 -7.96875,0.90625 c 0,0 -8.625,1.8125 -8.71875,1.96875 -0.0937,0.15625 -6.15625,2.09375 -6.15625,2.09375 l -5,2.3125 -2.03125,1.28125 -3.4375,3.40625 -1.96875,3.65625 -2.25,4.3125 -2.5,5.75 -2.46875,7.59375 -0.9375,4.34375 -0.78125,2.6875 -1.1875,1.96875 -2.59375,2.40625 -4.34375,3.40625 -6.875,6.5 -8.9375,8.03125 -8.40625,9.46875 -3.59375,4.75 -2.3125,2.0625 z"
       id="path3894"
       style="fill:#ff7b44;fill-opacity:1;stroke:#000000;stroke-width:1px;stroke-linecap:butt;stroke-linejoin:miter;stroke-opacity:1" />
  </g>
  <g
     transform="translate(-83.125,-100.4375)"
     id="layer10">
    <path
       d="m 188.125,398.36218 3.875,-11.09375 2.21875,-5.1875 2.78125,-6.125 1.375,-3.09375 1.78125,-3.46875 1.4375,-2.5625 2.375,-4.125 2.75,-4.25 2.1875,-3.21875 2.75,-2.8125 2.03125,-2.1875 c 0,0 1.25,-0.8125 1.40625,-0.9375 0.15625,-0.125 1.375,-1.03125 1.5,-1 0.125,0.0312 0.15625,-1.03125 0.15625,-1.03125 l -0.6875,-1.0625 -3.15625,-2.28125 -3.25,-1.28125 -3.46875,-1.09375 c 0,0 -2.53125,-0.6875 -3,-0.6875 -0.46875,0 -3.69286,0.0723 -3.81786,0.041 -0.125,-0.0312 -5.25536,0.27589 -5.25536,0.27589 l -3.17678,0.37056 2.34375,-1.0625 c 0,0 2.15625,-0.375 2.4375,-0.40625 0.28125,-0.0312 1.1875,-0.375 1.1875,-0.375 l 3.75,-1.1875 3.8125,-1.03125 4.21875,-1.75 3.6875,-1.5 4.4375,-2.5 3.3125,-1.53125 4.625,-1.96875 4.75,-2.75 3.71875,-2.03125 4.09375,-2.625 4.5,-2.71875 4,-2.84375 4.34375,-3.09375 3.125,-2.4375 4.0625,-3.1875 4.21875,-3.59375 3.90625,-3.15625 4.8125,-3.90625 4.4375,-4.28125 4.71875,-4.6875 4.84375,-4.90625 -4.8125,5.90625 -3.3125,4.375 -3.5625,4.78125 -3.125,4.03125 -4.46875,5.53125 -4.53125,3.96875 -5.59375,4.8125 -2.1875,2.25 c 0,0 -4.0625,2.4375 -4.1875,2.78125 -0.125,0.34375 -4.6875,3.0625 -4.6875,3.0625 l -2.4375,1.625 -4.03125,2.6875 -5.625,3.28125 -3,1.40625 -3.40625,2.09375 c 0,0 -1.15625,0.4375 -1.9375,0.96875 -0.78125,0.53125 -3.375,1.71875 -3.375,1.71875 l -1.125,0.90625 -0.0312,1.09375 c 0,0 1.125,1 1.40625,1.4375 0.28125,0.4375 2.90625,1.75 2.90625,1.75 l 3.125,0.8125 3.59375,0.0625 4,-0.0625 4.625,-0.9375 4.46875,-2.1875 5.03125,-2.875 3.71875,-3.625 2.25,-3.46875 2.60938,-4.875 2.23437,-4.3125 0.10937,1.75 -2.51562,4.6875 -2.59375,5.0625 -3.25,4.125 -5.84375,4.84375 -4,2.125 -5.65625,2.28125 -4.28125,1.40625 -3.125,1.25 -3.71875,1.25 -4.15625,1.78125 -3.3125,3.125 -3.75,3.5 -3.59375,4 -3.28125,3.6875 -2.15625,2.6875 -2.71875,4.3125 -2.75,4 -1.6875,2.3125 -1.59375,2.9375 -1.9375,3.59375 -1.21875,2.84375 z"
       id="path3079"
       style="fill:#1b0e00;fill-opacity:1;stroke:#000000;stroke-width:1px;stroke-linecap:butt;stroke-linejoin:miter;stroke-opacity:1" />
  </g>
  <g
     transform="translate(-83.125,-100.4375)"
     id="layer11">
    <path
       d="m 340.3125,246.64343 1.90625,-6.65625 c 0,0 0.6875,-2 0.9375,-2.3125 0.25,-0.3125 2.21875,-5.375 2.21875,-5.375 l 1.8125,-4.5 2.40625,-5.28125 2.375,-4.25 1.46875,-2.34375 1.96875,-3.03125 1.59375,-3.125 2.5,-3.625 2.46875,-3.375 2.96875,-4.40625 2.625,-3.5 1.84375,-1.96875 0.90625,-0.6875 0.6875,-0.28125 0.875,0.1875 c 0,0 1.78125,0.8125 2.03125,1 0.25,0.1875 3.6875,1.71875 3.6875,1.71875 l 3.71875,1.9375 2.15625,1.1875 2.28125,1.1875 1.84375,1.9375 2.78125,2.78125 1,1 1,1.1875 0.6875,1.84375 0.0312,7.1875 -1,3.53125 -1.3125,3.09375 -1.15625,2.375 -1,2.75 -1.6875,2.75 0.0312,-2.15625 0.1875,-2.625 -1.59375,-3.78125 -1.46875,-2.78125 -1.40625,-2.21875 -2.21875,-1.75 -1.8125,-1.28125 -2.71875,-0.5625 -1.1875,0 c 0,0 -3,0.78125 -3.15625,0.78125 -0.15625,0 -2.8125,1.5625 -2.8125,1.5625 l -4.25,2.875 -2.28125,2.25 -3.1875,3.53125 c 0,0 -2.875,2.5625 -2.875,2.6875 0,0.125 -3.0625,3.28125 -3.0625,3.28125 0,0 -1.9375,2.4375 -2.0625,2.53125 -0.125,0.0937 -2,2.90625 -2,2.90625 l -2.71875,3.15625 -1.40625,2.4375 -1.84375,2.375 -1.40625,2.625 z"
       id="path3850"
       style="fill:#1b0e00;fill-opacity:1;stroke:#000000;stroke-width:1px;stroke-linecap:butt;stroke-linejoin:miter;stroke-opacity:1" />
  </g>
  <g
     transform="translate(-83.125,-100.4375)"
     id="layer8">
    <path
       d="m 326.9706,396.43225 1.06066,-5.03813 0.77339,-5.54637 c 0,0 0.35356,-1.67938 0.50824,-1.85616 0.15468,-0.17677 0.7292,-0.55242 0.7292,-0.55242 0,0 1.85616,-0.19888 1.96664,-0.22097 0.11049,-0.0221 5.17072,0.39774 5.17072,0.39774 l 5.03814,1.17115 3.11568,1.12695 3.00521,0.83969 c 0,0 1.59099,0.68501 1.70147,0.70711 0.11049,0.0221 2.25391,1.34792 2.25391,1.34792 l 0.28726,0.59662 -0.0221,0.41985 -0.59662,0.41984 -4.35313,1.03856 -3.71231,1.25954 -3.27037,0.97227 -2.56326,1.10485 -2.49697,1.06066 -2.34229,1.32583 -1.92245,0.97227 -1.32582,0.86179 -0.7955,0.59662 -0.75129,0.0442 -0.86179,-0.0884 -0.68501,-1.08275 z"
       id="path3063"
       style="fill:#ffffff;stroke:#000000;stroke-width:1px;stroke-linecap:butt;stroke-linejoin:miter;stroke-opacity:1" />
  </g>
  <g
     transform="translate(-83.125,-100.4375)"
     id="layer9">
    <path
       d="m 355.87358,386.00243 c 0,0 0.0663,-2.85052 0.0663,-2.96101 0,-0.11049 0.37565,-2.62955 0.37565,-2.62955 l 0.95017,-3.0273 0.81759,-2.3423 1.17115,-3.18198 c 0,0 1.17114,-1.5026 1.23744,-1.59099 0.0663,-0.0884 1.74567,-2.40858 1.74567,-2.40858 0,0 0.68501,-0.57452 0.77339,-0.61872 0.0884,-0.0442 1.5247,-0.68501 1.70148,-0.68501 0.17678,0 1.37002,0.0884 1.37002,0.0884 0,0 0.7734,1.37002 0.81759,1.48051 0.0442,0.11048 0.55243,1.63518 0.64082,1.76776 0.0884,0.13259 0.92807,2.67375 0.92807,2.67375 l 0.88389,1.92245 0.7292,3.29246 1.08276,3.8228 0.53033,2.76214 -0.0442,1.25953 -0.55242,1.39211 -0.83969,1.06067 -2.47488,0.17677 -6.89429,0.41985 c 0,0 -1.23743,-0.0221 -1.67937,0.0663 -0.44194,0.0884 -1.43632,0.17679 -1.43632,0.17679 l -1.21534,-0.53034 z"
       id="path3066"
       style="fill:#ffffff;stroke:#000000;stroke-width:1px;stroke-linecap:butt;stroke-linejoin:miter;stroke-opacity:1" />
  </g>
  <g
     transform="translate(-83.125,-100.4375)"
     id="layer7"
     style="display:inline">
    <path
       d="m 277.3125,406.36218 1.71875,-3.28125 2.1875,-4.15625 2.8125,-4.71875 2.96875,-4.59375 3.0625,-5.09375 2.46875,-3.625 3.90625,-5.0625 2.09375,-3.0625 3.25,-3.03125 3.15625,-3.71875 c 0,0 4.53125,-4.59375 4.6875,-4.71875 0.15625,-0.125 3.84375,-3.1875 3.84375,-3.1875 l 3.125,-2.4375 5,-3.1875 3.15625,-1.71875 2.75,-1.71875 3.375,-1.4375 3.28125,-1.28125 3.75,-0.71875 2.46875,-0.0312 4.59375,1.1875 3.5,0.96875 4,2.25 c 0,0 1.6875,0.78125 1.71875,0.90625 0.0312,0.125 2.25,2.0625 2.25,2.0625 l 2.125,2.1875 1.34375,1.8125 -0.0625,0.96875 -1.40625,5.90625 -1,3.21875 -1.03125,3.96875 -1.3125,4.84375 -0.84375,3.09375 -0.75,2.90625 -5.59375,0.53125 -1.21875,0.0312 -6.3125,-1.625 -4.09375,-1 -3.78125,-0.9375 -3.03125,-0.90625 -1.875,-1.03125 -1.56878,-1.02773 0.517,1.43934 0.19195,1.82767 0.29733,5.35447 -0.84375,3.65625 -0.71875,1.90625 -2,1.90625 -7.4375,0.9375 -6.625,-0.71875 -4.03125,-1.34375 -1.66475,-1.37592 -0.70803,-0.49778 c 0,0 -0.0281,0.88795 -0.0281,1.6692 0,0.78125 0.0884,5.892 0.0884,5.892 l -0.375,1.96875 -2.125,6.8125 -1.71875,3.71875 -1.90625,2.5 c 0,0 -3.0625,0.875 -3.40625,0.90625 -0.34375,0.0312 -3.25,0 -3.25,0 0,0 -4.625,-1.40625 -4.78125,-1.46875 -0.15625,-0.0625 -3.65625,-1.4375 -3.65625,-1.4375 l -2.96875,-1.59375 z"
       id="path3060"
       style="fill:#ffffff;stroke:#000000;stroke-width:1px;stroke-linecap:butt;stroke-linejoin:miter;stroke-opacity:1" />
  </g>
  <g
     transform="translate(-83.125,-100.4375)"
     id="layer5">
    <path
       d="m 233.08007,498.56499 -1.37002,0.17678 c 0,0 -1.14905,-0.83969 -1.01646,-1.01647 0.13258,-0.17678 0.57452,-1.45841 0.57452,-1.45841 l 3.00521,-3.24827 1.87825,-2.78423 3.7786,-4.81717 1.90035,-2.9831 2.09922,-3.20408 0.97227,-2.23181 2.05503,-2.85052 1.92245,-3.11569 1.23744,-2.67375 1.76776,-2.76213 1.39212,-2.74004 1.03857,-2.12132 1.61308,-1.41422 2.32019,0.13259 3.75651,-1.03857 -1.97422,-5.42895 -0.1471,-4.33796 1.14905,-3.15988 1.21534,-3.29247 0.86178,-2.09922 c 0,0 1.21534,-2.34229 1.65729,-2.36439 0.44194,-0.0221 1.96664,-0.26517 1.96664,-0.26517 l 1.43631,-0.0221 c 0,0 7.15945,1.19324 7.66769,1.14905 0.50823,-0.0442 3.07149,-0.15468 3.07149,-0.15468 l 0.15468,-8.97142 0.95018,-3.95538 0.97227,-5.98831 c 0,0 0.26516,-1.30373 0.41984,-1.5026 0.15468,-0.19888 1.48051,-1.48051 1.74567,-1.63519 0.26517,-0.15468 2.74004,-0.95017 2.74004,-0.95017 l 4.28684,-0.86179 2.76213,-0.15468 2.74004,0.41985 3.62392,0.64081 2.60746,0.92808 0.0663,-3.86699 0.24307,-3.15988 0.92808,-4.44152 0.90598,-4.61829 1.17114,-3.88909 1.76777,-1.78986 2.71794,-0.15468 c 0,0 3.55763,0.86179 3.64602,0.81759 0.0884,-0.0442 1.61309,0.41985 1.61309,0.41985 l 4.81716,1.83406 2.65165,1.28163 1.30373,0.92807 0.7734,1.14905 -0.0442,1.06066 -2.05502,1.5247 -1.98874,1.5247 -2.276,1.94455 -3.18198,2.51906 -5.03814,4.97185 -8.59577,8.52947 -5.06023,5.92202 -4.552,5.98831 -3.20408,3.38086 -3.31456,4.46361 -2.34229,3.07149 -2.18761,2.82843 -3.73441,4.90555 -2.05503,2.85053 -4.35312,5.45798 -3.00521,3.88909 -2.62955,3.69021 -1.78987,1.92245 -2.9831,3.0273 -3.66812,3.7344 -3.09359,3.60183 -3.57973,3.22617 -4.77297,4.13216 -4.06586,3.27037 -4.11006,3.15988 -2.96101,2.49697 z"
       id="path3054"
       style="fill:#ffffff;stroke:#000000;stroke-width:1px;stroke-linecap:butt;stroke-linejoin:miter;stroke-opacity:1" />
  </g>
  <g
     transform="translate(-83.125,-100.4375)"
     id="layer6">
    <path
       d="m 266.18151,432.60519 0.79549,-2.62956 1.28164,-3.13778 1.08275,-2.85053 1.74567,-3.71231 1.63519,-3.97747 1.4805,-2.93892 1.23744,-1.92244 0.55243,-0.55243 0.77339,0.37565 1.17115,2.47487 0.0442,6.40816 -0.13258,2.67375 -0.61872,4.06586 -0.37565,3.46924 -0.22097,2.54117 -1.39212,1.28163 -2.67374,0.68501 -2.14342,0.13258 -2.74004,-0.68501 -1.37002,-0.99437 -0.11048,-0.59662 z"
       id="path3057"
       style="fill:#ffffff;stroke:#000000;stroke-width:1px;stroke-linecap:butt;stroke-linejoin:miter;stroke-opacity:1" />
  </g>
  <g
     transform="translate(-83.125,-100.4375)"
     id="layer26">
    <path
       d="m 617.39258,481.72702 a 14.318913,12.81631 0 1 1 -28.63782,0 14.318913,12.81631 0 1 1 28.63782,0 z"
       transform="matrix(0.96606492,0,0,1.0794839,23.514977,-41.429595)"
       id="path3947"
       style="fill:#ff7b44;fill-opacity:1;stroke:#000000;stroke-width:0.97923911;stroke-linejoin:round;stroke-miterlimit:4;stroke-opacity:1;stroke-dasharray:none" />
  </g>
  <g
     transform="translate(-83.125,-100.4375)"
     id="layer13">
    <path
       d="m 218.16454,570.40262 19.0256,-4.33102 0.30937,77.62706 -20.06416,4.41941 z"
       id="path3858"
       style="fill:#ff7b44;fill-opacity:1;stroke:#000000;stroke-width:1px;stroke-linecap:butt;stroke-linejoin:miter;stroke-opacity:1" />
  </g>
  <g
     transform="translate(-83.125,-100.4375)"
     id="layer14"
     style="display:inline">
    <path
       d="m 241.87471,564.98883 26.25134,-6.16508 5.64391,-0.62343 5.64391,0.12657 2.54496,0.95396 c 0,0 1.12537,0.69102 1.91172,1.27405 1.00446,1.04614 1.81717,2.3905 2.44016,3.59748 0.62299,1.20698 1.11876,2.43282 1.61433,3.5544 l 0.19285,2.08628 0.0723,15.74606 -0.15467,3.91119 -0.95018,3.15988 -2.276,3.0715 -3.0052,2.80633 -0.99437,0.79549 -2.66145,0.89905 4.77898,1.20332 2.63334,1.56575 1.69455,2.33092 0.48613,2.38648 0.44639,5.77113 -0.0817,18.68877 c -5.22795,1.34179 -14.14972,3.10158 -19.36501,4.46047 l -0.31249,-22.53431 -0.4116,-2.38453 -1.17781,-0.50732 -3.77611,0.6795 -1.60486,0.79929 -0.51359,0.89303 0.0884,24.90407 -19.51172,4.35312 z"
       id="path3869"
       style="fill:#ff7b44;fill-opacity:1;stroke:#000000;stroke-width:1px;stroke-linecap:butt;stroke-linejoin:miter;stroke-opacity:1" />
  </g>
  <g
     transform="translate(-83.125,-100.4375)"
     id="layer12">
    <path
       d="m 176.5625,657.95593 -10.3197,-75.24464 19.48131,-4.34911 5.30714,59.46875 5.82767,-62.13794 20.29733,-5.01831 -10.8125,80.12148 z"
       id="path3853"
       style="fill:#ff7b44;fill-opacity:1;stroke:#000000;stroke-width:1px;stroke-linecap:butt;stroke-linejoin:miter;stroke-opacity:1" />
  </g>
  <g
     transform="translate(-83.125,-100.4375)"
     id="layer15">
    <path
       d="m 287.94714,554.53691 41.91817,-9.67853 0.0884,14.84925 -11.97662,3.09359 0,62.49057 -18.05332,3.99957 -0.0442,-62.62314 -11.53467,3.0273 -0.50824,-2.12133 z"
       id="path3872"
       style="fill:#ff7b44;fill-opacity:1;stroke:#000000;stroke-width:1px;stroke-linecap:butt;stroke-linejoin:miter;stroke-opacity:1" />
  </g>
  <g
     transform="translate(-83.125,-100.4375)"
     id="layer16"
     style="display:inline">
    <path
       d="m 330.84375,544.58093 18.09375,-4.0625 0.0312,59.46875 0.28125,1.1875 c 0,0 1.15625,1.375 1.34375,1.375 0.1875,0 3.84375,-0.9375 3.84375,-0.9375 l 2.09375,-0.65625 0.46875,-1.125 -0.0625,-61.125 18.96875,-4.875 0,63.03125 -0.4375,2.8125 -0.75,2.28125 -1.0625,2.6875 -2.40625,3.375 -1.78125,2.25 -2.78125,2.15625 -2.71875,1.625 -3.15625,1.4375 -3.03125,0.875 -3.84375,1.125 -4.34375,0.84375 -4,0.75 -3.84375,0.0937 -3.1875,-0.21875 -2.1875,-1.09375 -2.21875,-2.1875 -1.90625,-2.3125 -1.34375,-4.53125 z"
       id="path3877"
       style="fill:#ff7b44;fill-opacity:1;stroke:#000000;stroke-width:1px;stroke-linecap:butt;stroke-linejoin:miter;stroke-opacity:1" />
  </g>
  <g
     transform="translate(-83.125,-100.4375)"
     id="layer17">
    <path
       d="m 378.9375,584.17468 18.03125,-5.21875 -0.0312,10.0625 0.28125,1.25 c 0,0 0.625,1 0.84375,1.15625 0.21875,0.15625 3.09375,0 3.09375,0 l 2.28125,-0.75 1.59375,-1.59375 -0.0312,-12.71875 -0.9375,-1.125 -0.8125,-0.46875 c 0,0 -1.59375,-0.4375 -1.78125,-0.4375 -0.1875,0 -12.15625,-0.25 -12.15625,-0.25 l -3.625,-0.90625 -2.4375,-1.5 -2.75,-2.78125 -0.90625,-1.9375 -0.8125,-2.875 0.0625,-19.125 c 0,0 0.375,-1.5625 0.46875,-1.90625 0.0937,-0.34375 1.125,-2.875 1.125,-2.875 l 1.125,-2.4375 2.25,-2.25 2.625,-2.59375 1.03125,-0.96875 c 0,0 1.6875,-0.84375 1.96875,-1 0.28125,-0.15625 5.125,-2.0625 5.125,-2.0625 l 8.0625,-1.875 4.71875,-0.90625 c 0,0 4.09375,-0.75 4.25,-0.75 0.15625,0 1.8125,0 2.03125,0 0.21875,0 4.21875,1.78125 4.21875,1.78125 l 3.375,3.21875 c 0,0 0.875,2.21875 0.875,2.34375 0,0.125 1.125,3.25 1.125,3.25 l -0.0937,12.21875 -17.28125,4.53125 0,-9.78125 -1.625,-1.09375 -3.09375,0.71875 -2.21875,1.125 -1.03125,1 0.15625,9.71875 2.03125,2.28125 c 0,0 2.09375,0.84375 2.84375,0.84375 0.75,0 8.03125,0.0937 8.03125,0.0937 l 3.25,-0.0312 c 0,0 2.03125,0.65625 2.1875,0.65625 0.15625,0 2.78125,1.34375 2.78125,1.34375 l 2,2.0625 1.75,2.4375 0.78125,1.5625 0.3125,1.125 0.0312,23.3125 -1.34375,2.96875 -2,3.75 -3.25,3.0625 -5.25,3.6875 c 0,0 -4.28125,1.65625 -4.71875,1.8125 -0.4375,0.15625 -6,1.59375 -6,1.59375 l -5.1875,1.28125 -8.71875,0.0312 -3.59375,-1.125 -2.65625,-2.34375 -1.5625,-3.40625 -0.8125,-3 z"
       id="path3880"
       style="fill:#ff7b44;fill-opacity:1;stroke:#000000;stroke-width:1px;stroke-linecap:butt;stroke-linejoin:miter;stroke-opacity:1" />
  </g>
  <g
     transform="translate(-83.125,-100.4375)"
     id="layer18">
    <path
       d="m 426.91572,582.95377 17.14734,-3.95538 -0.0442,16.98442 -17.20984,3.98885 z"
       id="path3885"
       style="fill:#ff7b44;fill-opacity:1;stroke:#000000;stroke-width:1px;stroke-linecap:butt;stroke-linejoin:miter;stroke-opacity:1" />
  </g>
  <g
     transform="translate(-83.125,-100.4375)"
     id="layer19">
    <path
       d="m 447.875,517.29968 c 0.9375,-0.0625 26.625,-6.0625 26.625,-6.0625 l 5,-0.5156 5.0625,0.3594 3.84375,1.59375 2.40625,1.59375 1.4375,2.125 1.125,2.65625 0.5,2.6875 0.1875,27.375 -1.21875,3.9375 -2.03125,3.8125 -3.21875,3.5625 -4.125,3.15625 -5.53125,2.65625 -3.96875,1.03125 -3.4375,0.90625 -2.59375,0.375 -1,0 0.0312,21.96875 -19.125,4.5625 z"
       id="path3888"
       style="fill:#ff7b44;fill-opacity:1;stroke:#000000;stroke-width:1px;stroke-linecap:butt;stroke-linejoin:miter;stroke-opacity:1" />
  </g>
  <g
     transform="translate(-83.125,-100.4375)"
     id="layer20">
    <path
       d="m 495.9375,507.17468 21.5625,-5.71875 6.78125,-1.03125 6.28125,-0.2812 3.4375,0.25 2.71875,1.21875 1.96875,1.375 c 0,0 1.15625,1.5 1.25,1.625 0.0937,0.125 1.28125,2.3125 1.28125,2.3125 l 1.0625,3 0.21875,18.34375 -0.5625,3.34375 -1.25,2.5 -1.59375,2.25 -1.84375,2.1875 -2.5625,1.71875 -2.875,1.34375 c 0,0 3.53125,0.96875 3.65625,1.03125 0.125,0.0625 2.65625,0.75 2.65625,0.75 l 1.59375,1.9375 1.6875,2.21875 0.34375,2.40625 0.15625,5.34375 0,17.5 c -6.38227,1.74482 -12.39334,3.59778 -18.84375,5.0625 l -0.1875,-23.09375 -0.46875,-1.3125 c 0,0 -0.875,-1.09375 -1,-1.125 -0.125,-0.0312 -1.8125,-0.21875 -2,-0.21875 -0.1875,0 -4.34375,1.125 -4.34375,1.125 l -0.21875,26.5625 -18.96875,4.6875 z"
       id="path3897"
       style="fill:#ff7b44;fill-opacity:1;stroke:#000000;stroke-width:1px;stroke-linecap:butt;stroke-linejoin:miter;stroke-opacity:1" />
  </g>
  <g
     transform="translate(-83.125,-100.4375)"
     id="layer27">
    <path
       d="m 617.12747,483.4064 a 9.9878836,9.5459414 0 1 1 -19.97577,0 9.9878836,9.5459414 0 1 1 19.97577,0 z"
       transform="matrix(0.99889031,0,0,1.0459855,-0.29853997,-27.099198)"
       id="path3952"
       style="fill:#1b0e00;fill-opacity:1;stroke:#000000;stroke-width:1;stroke-linejoin:round;stroke-miterlimit:4;stroke-opacity:1;stroke-dasharray:none" />
  </g>
  <g
     transform="translate(-83.125,-100.4375)"
     id="layer21"
     style="display:inline">
    <path
       d="m 544.90625,507.95593 c 0,0 0.4375,-2.28125 0.5,-2.40625 0.0625,-0.125 1.875,-4.40625 1.875,-4.40625 l 2.40625,-3.3125 c 0,0 2.8125,-3.03125 2.9375,-3.0625 0.125,-0.0312 4.375,-2.375 4.5,-2.5 0.125,-0.125 5.4375,-1.84375 5.4375,-1.84375 l 10.875,-2.875 4.90089,-0.47314 4.72411,0.41074 2,0.3125 1.97319,0.83395 2.55178,1.49019 1.53125,2.81694 0.72503,2.51517 c 0,0 0.25,2.75 0.125,2.875 -0.125,0.125 0.125,49.78125 0.125,49.78125 l -0.78125,5 -1.5625,3.75 -3.5,4.15625 -3.40625,2.25 -7.3125,2.9375 -5.59375,1.65625 c 0,0 -5.25,1.09375 -5.40625,1.125 -0.15625,0.0312 -5.375,1.1875 -5.375,1.1875 l -3.78125,0.1875 c 0,0 -3.0625,-0.46875 -3.375,-0.65625 -0.3125,-0.1875 -3.5,-2.625 -3.5,-2.625 l -2.6875,-3.75 -0.5,-2.71875 -0.34375,-1.78125 c -1.17627,-16.65377 0.29386,-34.79732 -0.0625,-50.875 z"
       id="path3914"
       style="fill:#ff7b44;fill-opacity:1;stroke:#000000;stroke-width:1px;stroke-linecap:butt;stroke-linejoin:miter;stroke-opacity:1" />
  </g>
  <g
     transform="translate(-83.125,-100.4375)"
     id="layer24">
    <path
       d="m 600.42204,484.93109 0,-12.02082 1.06066,-0.97227 7.18156,0.0808 1.79994,0.87349 0.73743,1.12349 0.33525,0.99372 -0.0884,1.90035 -0.83969,1.03856 -0.41984,0.50823 -0.24307,0.53033 0.44194,0.59662 1.03856,0.59662 0.13259,1.67938 -0.0442,3.0936 -4.04376,0 -0.11049,-3.29247 -0.77339,-0.81759 -0.88389,-0.0221 -0.81759,1.06066 0.0221,3.0494 z"
       id="path3935"
       style="fill:#ff7b44;fill-opacity:1;stroke:#000000;stroke-width:1px;stroke-linecap:butt;stroke-linejoin:miter;stroke-opacity:1" />
  </g>
  <g
     transform="translate(-83.125,-100.4375)"
     id="layer25">
    <path
       d="m 607.44889,476.42371 a 1.524699,1.524699 0 1 1 -3.04939,0 1.524699,1.524699 0 1 1 3.04939,0 z"
       id="path3944"
       style="fill:#1b0e00;fill-opacity:1;stroke:#000000;stroke-linejoin:round;stroke-opacity:1" />
  </g>
  <g
     transform="translate(-83.125,-100.4375)"
     id="layer28">
    <path
       d="m 260.9224,597.47155 c 0.0442,-0.26516 -0.0442,-20.90384 -0.0442,-20.90384 l 3.09359,-1.32583 2.65165,-0.22097 1.85616,0.35356 0.48613,1.10485 0.22097,17.01476 -1.45841,1.81196 c 0,0 -1.14904,0.61872 -1.41421,0.7513 -0.26516,0.13258 -2.20971,0.88388 -2.20971,0.88388 0,0 -1.90035,0.61872 -2.07712,0.61872 -0.17678,0 -1.10486,-0.0884 -1.10486,-0.0884 z"
       id="path3957"
       style="fill:#1b0e00;fill-opacity:1;stroke:#000000;stroke-width:1px;stroke-linecap:butt;stroke-linejoin:miter;stroke-opacity:1" />
  </g>
  <g
     transform="translate(-83.125,-100.4375)"
     id="layer29">
    <path
       d="m 467.48597,553.63093 c -0.0884,-0.22097 -0.0442,-25.05809 -0.0442,-25.05809 l 1.98873,-0.70711 1.98874,-0.39775 2.16552,0 c 0,0 0.30936,0.35355 0.53033,0.48614 0.22097,0.13258 0.48613,0.92807 0.48613,1.10485 0,0.17678 0.17678,19.88738 0.17678,19.88738 l -0.48614,1.23744 -0.7071,0.88388 -1.90035,1.14905 c 0,0 -1.90035,0.83969 -2.25391,0.97227 -0.35355,0.13258 -1.94454,0.44194 -1.94454,0.44194 z"
       id="path3960"
       style="fill:#1b0e00;fill-opacity:1;stroke:#000000;stroke-width:1px;stroke-linecap:butt;stroke-linejoin:miter;stroke-opacity:1" />
  </g>
  <g
     transform="translate(-83.125,-100.4375)"
     id="layer30">
    <path
       d="m 515.0389,538.6933 c 0.0442,-0.22097 0.0442,-21.2132 0.0442,-21.2132 l 1.10486,-0.26517 3.22617,-0.7513 2.16552,0 0.97227,0.48614 0.53033,0.83969 0.13258,16.70539 -0.61872,1.01647 -1.4584,1.5026 -2.20971,0.88389 c 0,0 -1.41422,0.61871 -1.63519,0.66291 -0.22097,0.0442 -2.2539,0.13258 -2.2539,0.13258 z"
       id="path3969"
       style="fill:#1b0e00;fill-opacity:1;stroke:#000000;stroke-width:1px;stroke-linecap:butt;stroke-linejoin:miter;stroke-opacity:1" />
  </g>
  <g
     transform="translate(-83.125,-100.4375)"
     id="layer31">
    <path
       d="m 564.88993,551.20025 -0.0442,-44.23837 c 0,0 0.75131,-0.61871 0.83969,-0.79549 0.0884,-0.17678 1.19325,-1.45841 1.41422,-1.45841 0.22097,0 2.03293,-0.30936 2.03293,-0.30936 l 2.20971,0 0.66291,0.39775 0.0442,45.12225 -0.57454,1.5026 c 0,0 -0.44194,0.61872 -0.79549,0.83969 -0.35356,0.22097 -2.91682,0.92808 -2.91682,0.92808 l -1.72357,-0.26516 -0.97227,-0.7955 z"
       id="path3980"
       style="fill:#1b0e00;fill-opacity:1;stroke:#000000;stroke-width:1px;stroke-linecap:butt;stroke-linejoin:miter;stroke-opacity:1" />
  </g>
</svg>
