<?xml version="1.0" encoding="utf-8"?>
<!-- Generator: Adobe Illustrator 22.0.1, SVG Export Plug-In . SVG Version: 6.00 Build 0)  -->
<svg version="1.1" id="Layer_1" xmlns="http://www.w3.org/2000/svg" xmlns:xlink="http://www.w3.org/1999/xlink" x="0px" y="0px"
	 viewBox="0 0 800 800" style="enable-background:new 0 0 800 800;" xml:space="preserve">
<style type="text/css">
	.st0{fill:#FFDD00;}
</style>
<path class="st0" d="M16.1,2v24.9c0,112.3,18.5,221.6,55,325C100.3,434.5,141,513.5,192,586.5C266.1,692.5,346.3,761.4,371,779
	l29.4,21l29.1-21.3c3.7-2.7,91.5-67.7,178.7-192.6c51-73,91.6-151.9,120.8-234.5c36.4-103.3,54.9-212.5,54.9-324.7V2H16.1z"/>
<path class="st0" d="M40.9,26.9c0,109.5,18,216,53.6,316.7c28.5,80.5,68.1,157.5,117.9,228.7c72.1,103.1,149.3,169.6,173,186.5
	l14.8,10.5l14.6-10.7c3.6-2.6,88.2-65.2,173-186.7c49.7-71.2,89.3-148.1,117.7-228.6c35.5-100.6,53.5-207.1,53.5-316.4H40.9z"/>
<g>
	<path d="M414.8,758.6c3.6-2.6,88.2-65.3,173.1-186.8c37.3-53.4,68.9-110,94.3-168.9c-31,32.4-62.2,45.8-79,32.8
		c-2.5-1.9-4.2-5.1-5-8.6c-5.3-22.8-17.9-64.7-27.6-95.8c22-23.9,34.4-41.3,35.6-43l41.6-59.3l-86,37.1
		c-103.3,44.6-220.5,44.6-323.8,0l-86-37.1l41.6,59.3c1.2,1.7,13.6,19.1,35.6,43c-9.7,31.1-22.3,73-27.6,95.8
		c-0.8,3.5-2.5,6.7-5,8.6c-16.8,12.9-48-0.4-79-32.8c25.5,59,57.2,115.8,94.6,169.2c72.1,103.2,149.4,169.7,173.1,186.6l14.8,10.5
		L414.8,758.6z"/>
	<g>
		<polygon class="st0" points="406.9,463.7 399,451.1 390.5,463.9 373.6,461 400,501.9 424.3,461 		"/>
		<path class="st0" d="M285.5,371.9c-2.9,5.4-4.6,11.4-4.6,17.9c0,21.2,17.2,38.4,38.4,38.4c11.3,0,21.3-4.9,28.3-12.6
			C324.9,401.8,304.1,386.9,285.5,371.9z"/>
		<path class="st0" d="M450.3,415.7c7,7.7,17.1,12.6,28.3,12.6c21.2,0,38.4-17.2,38.4-38.4c0-6.5-1.8-12.6-4.6-17.9
			C493.8,386.9,473,401.8,450.3,415.7z"/>
	</g>
</g>
<g>
	<path d="M339.2,92.2v65.6c0,39.9-36,48.8-71.7,48.8h-71.7V81.3c0-14.5-6.5-27.8-17.3-38.1h89C303.3,43.2,339.2,52.1,339.2,92.2z
		 M291.1,96c0-12.6-11-17.7-23.6-17.7h-23.6v93.4h23.6c12.6,0,23.6-4.9,23.6-17.7V96z"/>
	<path d="M425.1,206.7H377V81.3c0-14.5-6.5-27.8-17.3-38.1h65.4V206.7z"/>
	<path d="M532.3,108.6h71.2v100.2c0,0-9.8-6.8-21.7-6.8c-11.7,0-19.4,6.8-45.8,6.8c-31.3,0-75.9-11.2-75.9-51.1V91.5
		c0-39.9,44.6-51.1,75.9-51.1c28.7,0,48.6,6.3,67.7,20.6l-35.5,31.5c-8.9-11.4-20.8-17-32.2-17c-12.6,0-27.8,7.2-27.8,20.1v58.1
		c0,12.8,15.2,20.1,27.8,20.1c6.8,0,13.3-1.4,19.1-4.9c3.5-2.6,3.5-4.7,3.5-10.5c0.2-7.2,0.2-11.9,0.2-17.7h-14.7L532.3,108.6z"/>
</g>
</svg>
