<?xml version="1.0" encoding="utf-8"?>
<!-- Generator: Adobe Illustrator 21.0.2, SVG Export Plug-In . SVG Version: 6.00 Build 0)  -->
<svg version="1.1" id="Layer_1" xmlns="http://www.w3.org/2000/svg" xmlns:xlink="http://www.w3.org/1999/xlink" x="0px" y="0px"
	 viewBox="0 0 701.56 701.56" style="enable-background:new 0 0 701.56 701.56;" xml:space="preserve">
<style type="text/css">
	.st0{fill:#666666;}
	.st1{fill:#FF1720;}
	.st2{fill:#B4B4B4;}
	.st3{fill:#352924;}
	.st4{fill:#F2F2F2;}
	.st5{fill:#E7E7E7;}
</style>
<g id="_x23_666666ff">
	<path class="st0" d="M381.973,99.316c0.46-0.19,1.39-0.57,1.85-0.76c-7.97,10.87-17.19,21.19-22.18,33.91
		c-1.39,3.48-2.03,7.42-0.73,11.02c2.65,8.69,7.91,16.23,13.36,23.38c-9.06-4.48-20.22-5.78-29.42-0.97
		c-12.33,6.36-19.85,19-24.71,31.53c9.63-9.58,22.27-17.04,36.12-17.56c11.09-0.52,21.84,4.12,30.31,11.04
		c17.36,14.18,28.54,35.28,31.62,57.39c2.73,19.44,0.69,39.55-5.61,58.12c3.04-19.94,4.51-40.55-0.16-60.37
		c-3.46-14.92-10.7-29.5-22.75-39.29c-7.19-5.83-16.08-10.06-25.46-10.23c-7.69-0.01-15.2,2.03-22.45,4.43
		c-13.42,4.67-26.29,10.95-38.33,18.5c-5.08,2.95-8.01,8.3-10.35,13.49c-6.09,14.23-7.37,30.03-6.61,45.35
		c1.28,25.44,8.6,50.85,22.76,72.16c-2.5-2-5.14-3.99-6.89-6.71c-1.76-3.9-4.89-6.86-7.35-10.29c-5.89-7.97-11.2-16.37-15.8-25.16
		c-1.28-2.56-2.83-5.08-3.33-7.94c0.53-27.75,2.11-55.56,5.7-83.12c1.79-11.76,3.44-23.88,8.99-34.58
		c6.36-12.36,16.21-22.72,27.48-30.74c1.18-0.91,2.27-1.92,3.37-2.93c0.81-0.63,1.66-1.2,2.57-1.71c-1.67,0.04-3.33,0.06-4.99,0.06
		c14.22-15.49,30.88-28.65,48.78-39.65C372.423,104.756,377.393,102.366,381.973,99.316z"/>
	<path class="st0" d="M268.313,322.436c1.28,4.33,3.65,8.21,5.77,12.17c9.17,16.43,20.01,32.15,33.68,45.19
		c13.22,12.67,30.61,23.09,49.55,21.85c5.67-0.02,10.94-2.28,16.46-3.13c-13.26,9.43-28.73,15.17-44.09,20.2
		c-16.77,5.45-34.98,6.07-52.14,2.15c-14.93-3.48-28.6-11.55-39.33-22.43c-3.29-3.27-3.29-3.27-9.84-9.83
		c5.61-7.55,12.41-14.16,17.75-21.9c13.4,13.84,31.93,22.2,50.84,25.02c-1.12-0.57-3.72-2.14-3.72-2.14
		c-3.42-4.01-7.66-7.26-10.72-11.6c-9.22-11.88-16.61-25.11-22.84-38.75C262.483,333.596,265.633,328.136,268.313,322.436z"/>
	<path class="st0" d="M298.083,548.596c10.04-0.75,20.1-1.31,30.18-1.27c1.6-0.15,2.72,1.17,3.91,2.02
		c5.21,4.33,10.83,8.11,16.46,11.87c6.77-3.93,12.87-8.86,19.09-13.58c6.48-0.78,13.1-0.12,19.63-0.11
		c-11.33,11.35-24.08,21.52-38.38,28.89c-0.28,3.31-0.18,6.64-0.11,9.97c-1.67-0.37-3.25-1.01-4.69-1.9
		C327.253,574.736,311.643,562.636,298.083,548.596z"/>
</g>
<g id="_x23_ff1720ff">
	<path class="st1" d="M390.653,81.286h7.21c6.67-0.35,12.26,7.23,8.62,13.24c-5.03,7.64-10.29,16.24-9.05,25.8
		c1.34,9.95,8.89,17.38,15.72,24.09c7.78,7.49,16.55,14.33,22.06,23.79c3.32,5.44,4.07,11.88,5.05,18.04
		c2.77,18.71,4.61,37.54,6.53,56.36c7.25-17.19,13.65-34.74,20.57-52.07c11.83-30.23,23.6-60.47,35.45-90.68
		c1.24-3.51,4.78-6.03,8.53-5.8c9.69,0.23,20,2.23,27.59,8.65c6.35,5.33,10.15,14.87,5.67,22.55
		c29.64,15.13,57.64,33.86,81.51,57.16c22.24,21.56,40.68,47.13,53.46,75.38c22.54,49.85,27.71,107.14,15.69,160.42
		c-1.12,4.07-1.52,9.17-5.54,11.55c-4.5,3.01-11.42,0.65-12.97-4.58c-1.52-5.78-2.56-11.68-4.19-17.43
		c-8.77-33.48-23.92-65.67-46.62-92c-29.1-33.8-69.9-57.68-113.92-65.35c-4.24-1.12-6.93-5.82-5.96-10.06
		c1.04-6.13,2.58-12.17,3.67-18.29c-11.66,28.94-22.35,58.27-33.69,87.35c16.93,3.88,33.84,7.92,50.54,12.74
		c4.26,1.15,7,5.78,6.08,10.08c-4.64,27.14-11.14,53.97-19.47,80.21c2.68-0.02,5.37-0.03,8.07,0.07c5.51,0.47,11.28-1.54,16.52,1.08
		c5.27,2.5,12.09,6.07,12.29,12.72c-0.75,6.23-4.85,11.3-7.29,16.92c7.03,1.61,14.12,4.06,19.64,8.86
		c3.17,2.77,5.46,6.84,5.18,11.16c-0.44,4.63,1.09,9.24,0.15,13.85c-1.7,9.77-6.51,18.65-11.68,26.98
		c-2.59,3.9-4.87,8.61-9.66,10.15c-4.66,2.84-9.41,5.62-14.88,6.56c-0.07,6.85,0.11,13.7-0.05,20.54c0.1,2.94-1.85,5.31-3.89,7.18
		c-9.37,8.66-18.58,17.48-27.93,26.17c-2.54,2.64-6.64,3.52-9.98,1.93c-18.69-7.82-38.5-12.58-58.42-15.96
		c-20.47,22.22-44.04,42.1-71.27,55.5c-3.28,1.58-6.61,3.06-10.09,4.14h-2.19c-14.72-5.15-27.99-13.71-40.61-22.72
		c-14.52-10.59-27.75-22.84-39.96-36c-16.47,3.08-32.83,7.12-48.47,13.19c-3.08,1.1-6.12,3.12-9.53,2.55
		c-3.23-0.45-5.44-3.05-7.7-5.12c-8.59-8.11-17.2-16.2-25.83-24.27c-1.85-1.69-3.32-3.97-3.34-6.55
		c-0.19-7.18,0.04-14.36-0.08-21.54c-2.69-0.96-5.35-2.06-7.7-3.69c-2.96-2.19-7.06-2.88-9.07-6.23
		c-5.18-7.37-9.81-15.21-13.06-23.63c-1.86-5.09-3.39-10.53-2.63-15.99c0.81-4.79-0.82-10.14,2.22-14.4
		c5.12-7.53,14.39-10.64,22.86-12.65c-2.41-5.64-6.59-10.7-7.27-16.96c-0.02-5.81,5.6-9.17,10.07-11.67
		c5.09-3.01,11.12-2.61,16.77-2.1c-7.45-23.42-13.37-47.32-17.93-71.46c-0.97-3.94,1.22-8.04,4.73-9.87
		c16.3-9.64,33.98-16.74,52.05-22.28c-10.06-26.56-20.36-53.03-30.37-79.61c-0.08-1.03-1.03-1.37-1.73-1.85
		c1.47,1.98,1.57,4.52,2.1,6.85c0.71,4.36,2.09,8.61,2.42,13.03c0.29,4.25-3.16,8.18-7.32,8.76c-12.67,2.04-25.02,5.83-36.9,10.64
		c-32.75,13.27-61.88,35.42-83.24,63.59c-21.84,28.62-35.46,62.82-42.75,97.9c-0.49,4.12-3.76,7.87-8.02,8.21
		c-4.39,0.55-8.66-2.66-9.57-6.94c-4.89-17.65-6.94-35.97-7.74-54.23c-1.13-39.36,6.34-79.16,23.15-114.86
		c14.04-30.01,34.51-56.85,59.04-79.07c22.31-20.34,47.78-36.99,74.64-50.68c-2.43-4.67-2.71-10.25-0.15-14.93
		c4.58-9.81,15.56-14.4,25.72-15.68c4.07-0.35,8.58-1.65,12.37,0.53c3.51,1.91,4.38,6.11,5.8,9.52
		c16.73,42.91,33.54,85.79,50.26,128.71c2.19-17.63,3.79-35.39,7.77-52.74c0.84-2.42-0.78-4.63-1.36-6.89
		c-0.87-2.52-0.11-5.25,1.24-7.43c13.77-22.98,31.12-44.11,52.62-60.26C334.093,94.136,361.863,82.906,390.653,81.286
		 M334.743,106.736c-29.21,16.11-52.26,41.75-68.94,70.35c0.94,2.01,1.83,4.05,2.67,6.12c-2.5,9.74-4.07,19.69-5.48,29.64
		c-3.01,22.04-4.65,44.25-5.44,66.47c-6.31-14.7-11.72-29.79-17.68-44.64c-16.48-42.17-32.94-84.34-49.43-126.51
		c-7.16,0.38-14.72,1.36-20.74,5.58c-3.08,2.24-5.8,5.62-5.95,9.56c1.19,3.94,2.92,7.7,4.39,11.55
		c-35.81,17.53-69.63,40.09-96.66,69.64c-19.76,21.47-35.69,46.51-46.27,73.73c-16.14,41.39-20.07,87.2-12.79,130.93
		c1.14,6.12,2.15,12.31,4.15,18.22c4.4-21.25,10.97-42.1,20.21-61.76c14.35-30.75,35.68-58.38,62.63-79.1
		c25.53-19.56,55.58-33.77,87.41-39.11c-2.38-12.38-5.07-24.69-7.62-37.03c-0.79-4.02-2.13-8.09-1.46-12.23
		c0.74-4.85,4.04-9.07,8.3-11.4c16.19,42.7,32.62,85.32,48.91,127.98c-20.82,5.72-41.29,13.32-59.86,24.46
		c5.28,27.83,12.29,55.36,21.57,82.14c-2.79,0-5.6,0.17-8.38-0.07c-3.41-1.9-4.47-7.47-8.98-7.39c-8.51-0.92-15.8,4.66-21.23,10.57
		c3.07,8.92,7.42,17.58,14.13,24.34c0.45,3.16-2.75,2.54-4.82,2.23c-8.77,1.13-18.28,4.39-23.36,12.11
		c-3.89,5.81-3.21,13.28-1.1,19.61c3.73,11.32,10.29,21.45,17.37,30.94c0.7-0.21,2.08-0.62,2.77-0.83
		c4.86,4.53,11.57,6.28,18.04,6.71c0.01,6.61-0.05,13.21-0.01,19.82c-0.28,1.44,0.92,2.38,1.82,3.27
		c9.2,8.59,18.38,17.19,27.51,25.85c19.22-7.97,39.53-12.99,60-16.47c21.46,23.74,46.43,45.11,75.81,58.35
		c3.17,2.02,6.33-0.81,9.29-1.91c27.73-13.64,51.75-34.04,72.07-57.16c22.45,3.05,44.71,8.51,65.67,17.22
		c9.25-8.55,18.33-17.27,27.57-25.82c0.93-0.91,2.16-1.86,1.87-3.36c0.02-6.62,0.01-13.25-0.03-19.87
		c7.85,0.42,16.12-1.43,22.16-6.73c0.83,0.33,1.67,0.66,2.51,0.99c8.12-11.38,16.42-23.45,18.83-37.49
		c1.56-8.23-3.19-16.56-10.44-20.35c-5.64-2.93-12.08-5.36-18.51-4.6c-1.75,0.37-1.62-1.41-1.83-2.53
		c6.74-6.73,11-15.41,14.17-24.27c-5.79-6.46-14.12-12.38-23.25-10.31c-2.99,1.58-4.14,5.42-7.03,7.08
		c-6.13,0.26-12.26,0.01-18.39,0.08c10.14-29.6,17.97-60.03,22.98-90.92c-19.8-5.25-39.65-10.4-59.75-14.44
		c17.21-44.91,34.18-89.93,51.69-134.73c2.7,2.13,5.45,4.45,6.84,7.69c1.73,3.56,1.58,7.68,0.71,11.45
		c-3.04,13.8-5.66,27.68-8.76,41.47c50.33,9.08,96.48,38.35,126.89,79.38c22.13,29.53,35.94,64.58,43.5,100.53
		c3.8-11.95,5.3-24.53,6.61-36.96c3.82-42.23-2.69-85.62-20.47-124.23c-12.99-28.44-31.99-53.96-54.78-75.3
		c-24.38-22.91-52.87-41.11-82.91-55.68c1.39-4.11,3.5-8.03,4.42-12.28c-0.7-4.09-3.57-7.48-7.02-9.61
		c-5.88-3.64-12.94-4.53-19.71-4.89c-23.17,59.25-46.32,118.5-69.45,177.77c-1.25-7-1.37-14.14-2.19-21.2
		c-2.56-26.11-4.75-52.31-9.02-78.22c-1.37-10.28-9.68-17.43-16.77-24.17c-9.91-9.24-21.29-18.75-24.56-32.55
		c-2.85-12.22,2.78-24.31,9.58-34.15C376.383,89.446,354.233,96.086,334.743,106.736z"/>
	<path class="st1" d="M389.863,142.796c-3.14-5.99-5.72-12.68-5.12-19.56c-0.08,7.71,3.04,15.09,7.19,21.46
		c6.96,10.24,17.53,17.14,25.99,26c4.53,4.7,6.49,11.19,7.1,17.55c3.84,36.03,7.68,72.06,11.49,108.1
		c-14.13,19.65-28.02,39.49-42.34,59c0.81-2.71,2.49-5.01,3.95-7.39c10.51-17.09,20.98-34.19,31.5-51.26
		c1.02-1.25,0.88-2.86,0.76-4.35c-2.68-34.83-5.26-69.66-7.92-104.49c-0.42-5.92-2.24-11.94-6.4-16.32
		C407.293,162.016,396.223,154.336,389.863,142.796z"/>
	<path class="st1" d="M383.153,219.306c8.34,2.6,16.5,7.39,21.17,14.99c3.69,5.97,4.01,13.5,2.06,20.13
		c-2.74,9.43-8.53,17.61-14.79,25.04c0.26,14.27,0.58,28.54,0.87,42.82c-6.52,4.25-13.17,8.31-19.66,12.6
		c-0.54,4.42-1.17,8.84-1.74,13.27c-5.3,3.6-10.68,7.08-15.96,10.7c-3.32-3.45-6.57-6.98-9.76-10.54c3.33,2.09,6.4,4.56,9.47,7.02
		c4.35-3.1,8.42-6.57,12.59-9.9c1.36-0.88,1.07-2.65,1.26-4.03c0.58-12.44,1.79-24.85,2.08-37.3c1.52,8.63,1.32,17.47,2.07,26.19
		c5.47-3.12,10.8-6.49,16.15-9.81c-0.37-13.09-0.57-26.19-0.95-39.28c-4.5,2.71-7.5,7.26-8.5,12.4c-1.64-6.87,2.98-12.97,7.53-17.55
		c7.21-7.27,14.8-15.26,16.96-25.61c1.76-7.87-1.91-15.89-7.56-21.26C392.583,225.156,387.703,222.426,383.153,219.306z"/>
	<path class="st1" d="M306.703,238.536c2.42-1.11,5.07-1.37,7.71-1.3c6.18,8.6,14.15,16.79,24.81,19.34
		c-8.6,2.06-18.47,4.12-26.6-0.51C306.613,252.506,306.003,244.786,306.703,238.536z"/>
	<path class="st1" d="M363.233,256.516c10.81-2.27,18.48-10.82,24.98-19.13c2.46-0.27,5.5-0.27,7.48,1.36
		c0.72,4.63,0.53,9.78-2.13,13.81c-2.27,3.45-6.31,5.28-10.28,5.89C376.553,259.516,369.733,258.226,363.233,256.516z"/>
	<path class="st1" d="M356.353,262.916c2.39,3.76,3.41,8.24,5.18,12.32c0.22,4.29-1.89,8.28-3.78,12.01
		c0.42-3.43,1.55-7.16-0.08-10.44C355.573,272.526,355.543,267.526,356.353,262.916z"/>
	<path class="st1" d="M429.183,320.456c1.43-1.15,2.86-2.31,4.29-3.47c7.82,4.37,15.06,9.78,21.46,16.06
		c-7.34,13.27-15.28,26.28-24.79,38.11c-4.82,5.8-9.97,11.64-16.72,15.22c14.15-14.81,25.44-32.75,30.8-52.63
		C439.713,328.786,435.003,323.886,429.183,320.456z"/>
	<path class="st1" d="M485.203,382.286c-4.78-10.49-12.24-19.61-17.85-29.68c8.32,9.03,16.82,18.08,23.28,28.59
		c-3.02,6.81-6.27,13.56-10.52,19.71c-1.66-0.05-3.31-0.06-4.96-0.09C478.473,394.626,482.553,388.806,485.203,382.286z"/>
	<path class="st1" d="M446.113,376.226c1.32-0.32,2.66-0.64,3.99-0.96c3.5,5.02,6.6,10.28,9.13,15.86
		c-5.52,3.45-10.13,8.13-15.89,11.2c-4.39,3.54-9.62,5.67-14.43,8.52c-3.14,1.31-6.5,2-9.7,3.11c4.08-3.06,9.17-4.37,13.17-7.56
		c3.03-2.34,6.47-4.12,9.34-6.67c3.4-3.7,7.18-7.02,10.59-10.72C450.483,384.636,449.293,379.876,446.113,376.226z"/>
	<path class="st1" d="M195.443,431.546c12.6,0.08,25.21-0.02,37.81,0.04c1.28-0.15,2.15,0.94,3.06,1.65
		c4.57,4.12,9.3,8.06,13.99,12.05c-0.1,20.21-0.32,40.43-0.34,60.64c-4.26,4.44-8.61,8.79-12.77,13.31
		c-0.83,1.12-2.14,1.53-3.45,1.77c-14.15,2.77-28.18,6.11-42.09,9.9c-0.02-4.34-0.03-8.68,0.01-13.02c4.57-1.64,9.13-3.32,13.7-4.95
		c-4.48-2.87-9.13-5.46-13.69-8.18c-0.08-12.46,0.01-24.91-0.05-37.37c4.34,2.26,8.91,4.03,13.57,5.53
		c1.32-9.21,3.36-19.03-0.7-27.88C202.633,439.756,197.523,436.676,195.443,431.546 M212.423,449.476
		c-0.07,19.44-0.13,38.89-0.18,58.34c5.55-1.28,11.44-1.63,16.82-3.33c0.24-18.56,0.19-37.13,0.35-55.7
		C223.743,448.966,218.083,449.246,212.423,449.476z"/>
	<path class="st1" d="M464.213,431.496c15.98,0.17,31.97,0.05,47.96,0.06c-1.25,2.5-2.78,4.86-4.79,6.83
		c-3.08,3.17-4.74,7.35-5.96,11.51c-5.56-0.25-11.12-0.51-16.67-0.73c0.07,5.8-0.06,11.61,0.09,17.42c5.39,1.42,11.39,1.04,17,1.99
		c0.26,1.49,0.51,2.98,0.8,4.48c2.68-1.09,5.37-2.17,8.05-3.25c0.47,6,0.11,12.04,0.21,18.06c-8.57-1.29-17.14-2.51-25.74-3.59
		c0.03,7.4,0.06,14.8,0.07,22.2c6.88,1.28,13.74,2.64,20.6,4.02c-1.18,0.85-2.39,1.63-3.55,2.5c3.57,1.2,7.09,2.53,10.65,3.8
		c0.04,4.7,0.03,9.4,0.01,14.11c-15.94-4.33-32.04-8.12-48.3-11.08C464.403,490.386,464.043,460.936,464.213,431.496z"/>
	<path class="st1" d="M304.553,445.626c6.6-0.11,13.21-0.16,19.81-0.24c3.85,10.55,7.29,21.26,11.38,31.72
		c3.76-10.64,7.46-21.3,11.39-31.87c6.59,0.15,13.19-0.05,19.78,0.14c0.01,21.33-0.04,42.66,0.14,63.99
		c-5.36,0.17-10.7-0.1-16.05-0.05c-0.08-13.11,0.13-26.22-0.11-39.32c-4.32,13.13-8.48,26.31-12.71,39.47
		c-1.71,0.05-3.41,0.12-5.12,0.19c-4.3-12.98-8.33-26.05-12.54-39.06c-0.47,13.19-0.14,26.39-0.33,39.58
		c-5.33,0.29-10.65,0.64-15.96,1.05C304.333,489.356,304.443,467.496,304.553,445.626z"/>
	<path class="st1" d="M375.303,445.366c9.5,0.06,19,0.16,28.5,0.31c0.02,4.15,0.04,8.3,0.09,12.46c-1.9-0.04-3.8-0.07-5.69-0.1
		c0.08,13.55,0.05,27.1,0.26,40.64c1.87,0.13,3.75,0.24,5.63,0.39c-0.01,4.15,0.03,8.3,0.06,12.46c-9.54-0.77-19.08-1.42-28.65-1.73
		c-0.08-4.09-0.07-8.17-0.06-12.24c1.9,0.04,3.81,0.11,5.72,0.15c-0.14-13.35-0.07-26.69-0.17-40.04c-1.9-0.03-3.79-0.07-5.67-0.09
		C375.313,453.506,375.293,449.436,375.303,445.366z"/>
	<path class="st1" d="M257.983,446.606c13.24-0.38,26.48-0.67,39.72-0.88c0,4.19-0.01,8.39-0.06,12.58
		c-7.58,0.24-15.17,0.51-22.75,0.84c-0.04,4.37-0.08,8.75-0.1,13.12c7.21-0.45,14.43-0.86,21.65-1.17
		c-0.03,4.11-0.03,8.23-0.07,12.35c-7.14,0.47-14.28,0.93-21.4,1.56c-0.12,5.45-0.08,10.9-0.13,16.35
		c7.72-0.79,15.44-1.62,23.18-2.07c-0.05,4.16-0.07,8.31-0.11,12.47c-13.53,1.18-26.99,2.98-40.43,4.93
		C257.723,493.326,257.793,469.966,257.983,446.606z"/>
	<path class="st1" d="M411.713,445.806c14.65,0.27,29.3,0.58,43.94,1.07c-0.02,7.08,0.14,14.17,0.07,21.25
		c-5.17-0.43-10.33-0.75-15.5-1.07c-0.04-2.47-0.07-4.94-0.1-7.4c-3.72-0.17-7.43-0.34-11.15-0.49c-0.01,3,0.01,6,0.14,9
		c9.31,6.1,18.21,12.79,27.17,19.37c0.32,10.26,0.19,20.52,0.3,30.78c-14.95-2.6-29.99-4.58-45.08-6.14
		c0-6.89-0.06-13.77-0.09-20.66c5.73,0.46,11.47,0.87,17.19,1.48c0.03,2.72,0.05,5.44,0.02,8.16c3.55,0.5,7.12,0.89,10.68,1.29
		c-0.02-3.67-0.06-7.33-0.09-10.99c-8.94-6.61-18.11-12.89-27.35-19.07C411.813,463.526,411.763,454.666,411.713,445.806z"/>
</g>
<g id="_x23_000000ff">
	<path d="M334.743,106.736c19.49-10.65,41.64-17.29,63.98-16.44c-6.8,9.84-12.43,21.93-9.58,34.15
		c3.27,13.8,14.65,23.31,24.56,32.55c7.09,6.74,15.4,13.89,16.77,24.17c4.27,25.91,6.46,52.11,9.02,78.22
		c0.82,7.06,0.94,14.2,2.19,21.2c23.13-59.27,46.28-118.52,69.45-177.77c6.77,0.36,13.83,1.25,19.71,4.89
		c3.45,2.13,6.32,5.52,7.02,9.61c-0.92,4.25-3.03,8.17-4.42,12.28c30.04,14.57,58.53,32.77,82.91,55.68
		c22.79,21.34,41.79,46.86,54.78,75.3c17.78,38.61,24.29,82,20.47,124.23c-1.31,12.43-2.81,25.01-6.61,36.96
		c-7.56-35.95-21.37-71-43.5-100.53c-30.41-41.03-76.56-70.3-126.89-79.38c3.1-13.79,5.72-27.67,8.76-41.47
		c0.87-3.77,1.02-7.89-0.71-11.45c-1.39-3.24-4.14-5.56-6.84-7.69c-17.51,44.8-34.48,89.82-51.69,134.73
		c20.1,4.04,39.95,9.19,59.75,14.44c-5.01,30.89-12.84,61.32-22.98,90.92c6.13-0.07,12.26,0.18,18.39-0.08
		c2.89-1.66,4.04-5.5,7.03-7.08c9.13-2.07,17.46,3.85,23.25,10.31c-3.17,8.86-7.43,17.54-14.17,24.27c0.21,1.12,0.08,2.9,1.83,2.53
		c6.43-0.76,12.87,1.67,18.51,4.6c7.25,3.79,12,12.12,10.44,20.35c-2.41,14.04-10.71,26.11-18.83,37.49
		c-0.84-0.33-1.68-0.66-2.51-0.99c-6.04,5.3-14.31,7.15-22.16,6.73c0.04,6.62,0.05,13.25,0.03,19.87c0.29,1.5-0.94,2.45-1.87,3.36
		c-9.24,8.55-18.32,17.27-27.57,25.82c-20.96-8.71-43.22-14.17-65.67-17.22c-20.32,23.12-44.34,43.52-72.07,57.16
		c-2.96,1.1-6.12,3.93-9.29,1.91c-29.38-13.24-54.35-34.61-75.81-58.35c-20.47,3.48-40.78,8.5-60,16.47
		c-9.13-8.66-18.31-17.26-27.51-25.85c-0.9-0.89-2.1-1.83-1.82-3.27c-0.04-6.61,0.02-13.21,0.01-19.82
		c-6.47-0.43-13.18-2.18-18.04-6.71c-0.69,0.21-2.07,0.62-2.77,0.83c-7.08-9.49-13.64-19.62-17.37-30.94
		c-2.11-6.33-2.79-13.8,1.1-19.61c5.08-7.72,14.59-10.98,23.36-12.11c2.07,0.31,5.27,0.93,4.82-2.23
		c-6.71-6.76-11.06-15.42-14.13-24.34c5.43-5.91,12.72-11.49,21.23-10.57c4.51-0.08,5.57,5.49,8.98,7.39
		c2.78,0.24,5.59,0.07,8.38,0.07c-9.28-26.78-16.29-54.31-21.57-82.14c18.57-11.14,39.04-18.74,59.86-24.46
		c-16.29-42.66-32.72-85.28-48.91-127.98c-4.26,2.33-7.56,6.55-8.3,11.4c-0.67,4.14,0.67,8.21,1.46,12.23
		c2.55,12.34,5.24,24.65,7.62,37.03c-31.83,5.34-61.88,19.55-87.41,39.11c-26.95,20.72-48.28,48.35-62.63,79.1
		c-9.24,19.66-15.81,40.51-20.21,61.76c-2-5.91-3.01-12.1-4.15-18.22c-7.28-43.73-3.35-89.54,12.79-130.93
		c10.58-27.22,26.51-52.26,46.27-73.73c27.03-29.55,60.85-52.11,96.66-69.64c-1.47-3.85-3.2-7.61-4.39-11.55
		c0.15-3.94,2.87-7.32,5.95-9.56c6.02-4.22,13.58-5.2,20.74-5.58c16.49,42.17,32.95,84.34,49.43,126.51
		c5.96,14.85,11.37,29.94,17.68,44.64c0.79-22.22,2.43-44.43,5.44-66.47c1.41-9.95,2.98-19.9,5.48-29.64
		c-0.84-2.07-1.73-4.11-2.67-6.12C282.483,148.486,305.533,122.846,334.743,106.736 M330.733,123.776
		c-10.37,7-20.11,15.43-26.57,26.28c4.87-1.26,9.81-2.24,14.82-2.72c1.66,0,3.32-0.02,4.99-0.06c-0.91,0.51-1.76,1.08-2.57,1.71
		c-14.07,6.16-27.97,14.53-37.04,27.24c-5.33,7.54-6.18,17.02-7.66,25.87c-4.38,32.25-6.21,64.78-8.1,97.25
		c-0.57,2.45,1.12,4.42,2.36,6.34c9.23,13.63,19.7,26.46,31.38,38.06c1.75,2.72,4.39,4.71,6.89,6.71
		c-14.16-21.31-21.48-46.72-22.76-72.16c-0.76-15.32,0.52-31.12,6.61-45.35c2.34-5.19,5.27-10.54,10.35-13.49
		c12.04-7.55,24.91-13.83,38.33-18.5c7.25-2.4,14.76-4.44,22.45-4.43c9.38,0.17,18.27,4.4,25.46,10.23
		c12.05,9.79,19.29,24.37,22.75,39.29c4.67,19.82,3.2,40.43,0.16,60.37c6.3-18.57,8.34-38.68,5.61-58.12
		c-3.08-22.11-14.26-43.21-31.62-57.39c-8.47-6.92-19.22-11.56-30.31-11.04c-13.85,0.52-26.49,7.98-36.12,17.56
		c4.86-12.53,12.38-25.17,24.71-31.53c9.2-4.81,20.36-3.51,29.42,0.97c-5.45-7.15-10.71-14.69-13.36-23.38
		c-1.3-3.6-0.66-7.54,0.73-11.02c4.99-12.72,14.21-23.04,22.18-33.91c-0.46,0.19-1.39,0.57-1.85,0.76
		C363.973,105.266,346.563,113.296,330.733,123.776 M517.453,111.406c-24.49,61.25-48.53,122.69-72.91,183.98
		c-1.36,2.69-1.17,5.75-1.23,8.67c-2.62,1.38-4.06,3.92-4.82,6.68c5.31,2.23,10.15,5.34,14.8,8.7c0.89,0.98,2.17,0.77,2.38-0.62
		c23.96-63.09,48.15-126.1,71.81-189.3c1.4-4.31,4.02-8.99,2.14-13.56C527.223,111.786,521.843,110.956,517.453,111.406
		 M173.983,119.006c-3.11,1.81-2.99,6.01-2.33,9.07c8.64,23.84,17.8,47.49,26.71,71.22c15.81,41.37,31.37,82.84,47.4,124.12
		c5.01-3.77,10.13-7.4,15.56-10.56c-1.16-2.08-2.94-3.73-4.04-5.81c-0.68-2.32-0.07-4.81-0.61-7.15
		c-24.2-61.19-48.48-122.35-72.6-183.57C180.543,116.266,176.873,116.836,173.983,119.006 M389.863,142.796
		c6.36,11.54,17.43,19.22,26.2,28.74c4.16,4.38,5.98,10.4,6.4,16.32c2.66,34.83,5.24,69.66,7.92,104.49
		c0.12,1.49,0.26,3.1-0.76,4.35c-10.52,17.07-20.99,34.17-31.5,51.26c-1.46,2.38-3.14,4.68-3.95,7.39
		c14.32-19.51,28.21-39.35,42.34-59c-3.81-36.04-7.65-72.07-11.49-108.1c-0.61-6.36-2.57-12.85-7.1-17.55
		c-8.46-8.86-19.03-15.76-25.99-26c-4.15-6.37-7.27-13.75-7.19-21.46C384.143,130.116,386.723,136.806,389.863,142.796
		 M527.663,147.656l0.2,0.07c-3.38,7.56-6.47,15.25-9.5,22.95c8.33,2.58,12.37,11.47,12.85,19.59c1.08,15.58-3.25,30.95-8.45,45.48
		c25.85,5.57,50.87,15.45,72.97,30.04c30.01,19.61,54.26,47.47,70.93,79.11c7.16,13.87,13.53,28.32,17.17,43.55
		c0.8-5.87,1.18-11.89,0.81-17.78c0.33-32.52-5.08-65.25-16.95-95.59c-12.74-32.74-33.34-62.28-59.22-86
		c-22.69-20.71-48.97-37.76-77.71-48.76C529.753,142.776,528.743,145.236,527.663,147.656 M159.343,150.376
		c-48.81,22.39-90.9,60.42-115.63,108.33c-19.59,37.59-27.81,80.44-26.8,122.63c-0.08,4.33,0.21,8.67,0.81,12.96
		c0.82-5.03,2.53-9.83,4.2-14.62c12.56-34.87,33.56-66.87,61.43-91.41c26.89-23.8,60.31-39.8,95.4-47.08
		c-5.15-14.99-9.82-30.78-8.28-46.79c0.67-7.84,4.96-15.88,12.78-18.51c-3.18-7.64-6.29-15.3-9.47-22.94
		c-0.98-2.39-1.95-4.78-2.84-7.2C166.953,146.976,163.143,148.686,159.343,150.376 M383.153,219.306c4.55,3.12,9.43,5.85,13.29,9.88
		c5.65,5.37,9.32,13.39,7.56,21.26c-2.16,10.35-9.75,18.34-16.96,25.61c-4.55,4.58-9.17,10.68-7.53,17.55c1-5.14,4-9.69,8.5-12.4
		c0.38,13.09,0.58,26.19,0.95,39.28c-5.35,3.32-10.68,6.69-16.15,9.81c-0.75-8.72-0.55-17.56-2.07-26.19
		c-0.29,12.45-1.5,24.86-2.08,37.3c-0.19,1.38,0.1,3.15-1.26,4.03c-4.17,3.33-8.24,6.8-12.59,9.9c-3.07-2.46-6.14-4.93-9.47-7.02
		c3.19,3.56,6.44,7.09,9.76,10.54c5.28-3.62,10.66-7.1,15.96-10.7c0.57-4.43,1.2-8.85,1.74-13.27c6.49-4.29,13.14-8.35,19.66-12.6
		c-0.29-14.28-0.61-28.55-0.87-42.82c6.26-7.43,12.05-15.61,14.79-25.04c1.95-6.63,1.63-14.16-2.06-20.13
		C399.653,226.696,391.493,221.906,383.153,219.306 M306.703,238.536c-0.7,6.25-0.09,13.97,5.92,17.53c8.13,4.63,18,2.57,26.6,0.51
		c-10.66-2.55-18.63-10.74-24.81-19.34C311.773,237.166,309.123,237.426,306.703,238.536 M363.233,256.516
		c6.5,1.71,13.32,3,20.05,1.93c3.97-0.61,8.01-2.44,10.28-5.89c2.66-4.03,2.85-9.18,2.13-13.81c-1.98-1.63-5.02-1.63-7.48-1.36
		C381.713,245.696,374.043,254.246,363.233,256.516 M356.353,262.916c-0.81,4.61-0.78,9.61,1.32,13.89
		c1.63,3.28,0.5,7.01,0.08,10.44c1.89-3.73,4-7.72,3.78-12.01C359.763,271.156,358.743,266.676,356.353,262.916 M429.183,320.456
		c5.82,3.43,10.53,8.33,15.04,13.29c-5.36,19.88-16.65,37.82-30.8,52.63c6.75-3.58,11.9-9.42,16.72-15.22
		c9.51-11.83,17.45-24.84,24.79-38.11c-6.4-6.28-13.64-11.69-21.46-16.06C432.043,318.146,430.613,319.306,429.183,320.456
		 M250.593,338.276c5.92,13.15,13.63,25.58,23.43,36.19c5.6,5.94,11.87,11.45,19.22,15.12c0,0,2.6,1.57,3.72,2.14
		c-18.91-2.82-37.44-11.18-50.84-25.02c-1.86-1.92-3.63-3.93-5.33-5.98c-7.68,8.93-15.4,17.82-23.13,26.7
		c5.18,10.75,14.26,18.97,24.14,25.36c10.5,5.57,21.68,10.32,33.56,11.85c14.08,2.36,28.59,2.47,42.58-0.56
		c23.15-4.9,45.09-15,64.32-28.73c1.95-1.42,3.5-3.31,4.84-5.3c-3.66,3.95-8.87,5.68-13.33,8.47c-5.52,0.85-10.79,3.11-16.46,3.13
		c-18.94,1.24-36.33-9.18-49.55-21.85c-13.67-13.04-24.51-28.76-33.68-45.19c-2.12-3.96-4.49-7.84-5.77-12.17
		C261.933,327.136,255.353,331.846,250.593,338.276 M485.203,382.286c-2.65,6.52-6.73,12.34-10.05,18.53
		c1.65,0.03,3.3,0.04,4.96,0.09c4.25-6.15,7.5-12.9,10.52-19.71c-6.46-10.51-14.96-19.56-23.28-28.59
		C472.963,362.676,480.423,371.796,485.203,382.286 M446.113,376.226c3.18,3.65,4.37,8.41,6.2,12.78
		c-3.41,3.7-7.19,7.02-10.59,10.72c-2.87,2.55-6.31,4.33-9.34,6.67c-4,3.19-9.09,4.5-13.17,7.56c3.2-1.11,6.56-1.8,9.7-3.11
		c4.81-2.85,10.04-4.98,14.43-8.52c5.76-3.07,10.37-7.75,15.89-11.2c-2.53-5.58-5.63-10.84-9.13-15.86
		C448.773,375.586,447.433,375.906,446.113,376.226 M166.323,426.196c3.32,8.74,8.84,16.66,16.23,22.44
		c1.23-1.3,2.57-2.49,4.05-3.49c-0.41,2.47-0.99,5.16,0.16,7.55c2.34,5.24,7.64,8.22,12.61,10.57c1.42-7.95-0.11-17.14-6.76-22.39
		c-3.88-7.22-9.1-13.59-14.24-19.95C173.723,420.616,169.703,423.336,166.323,426.196 M528.653,421.786
		c-4.75,5.68-9.56,11.45-12.94,18.08c-1.23,1.97-3.36,3.2-4.56,5.2c-3.55,5.33-3.81,12.05-2.98,18.21
		c7.1-2.94,15.8-9.29,12.82-18.16c1.45,0.96,2.75,2.14,3.86,3.5c7.64-5.54,13.02-13.7,16.42-22.42c-2.42-1.97-4.97-3.94-8.01-4.82
		C531.753,421.066,529.733,420.166,528.653,421.786 M195.443,431.546c2.08,5.13,7.19,8.21,9.05,13.49
		c4.06,8.85,2.02,18.67,0.7,27.88c-4.66-1.5-9.23-3.27-13.57-5.53c0.06,12.46-0.03,24.91,0.05,37.37c4.56,2.72,9.21,5.31,13.69,8.18
		c-4.57,1.63-9.13,3.31-13.7,4.95c-0.04,4.34-0.03,8.68-0.01,13.02c13.91-3.79,27.94-7.13,42.09-9.9c1.31-0.24,2.62-0.65,3.45-1.77
		c4.16-4.52,8.51-8.87,12.77-13.31c0.02-20.21,0.24-40.43,0.34-60.64c-4.69-3.99-9.42-7.93-13.99-12.05
		c-0.91-0.71-1.78-1.8-3.06-1.65C220.653,431.526,208.043,431.626,195.443,431.546 M464.213,431.496
		c-0.17,29.44,0.19,58.89,0.43,88.33c16.26,2.96,32.36,6.75,48.3,11.08c0.02-4.71,0.03-9.41-0.01-14.11
		c-3.56-1.27-7.08-2.6-10.65-3.8c1.16-0.87,2.37-1.65,3.55-2.5c-6.86-1.38-13.72-2.74-20.6-4.02c-0.01-7.4-0.04-14.8-0.07-22.2
		c8.6,1.08,17.17,2.3,25.74,3.59c-0.1-6.02,0.26-12.06-0.21-18.06c-2.68,1.08-5.37,2.16-8.05,3.25c-0.29-1.5-0.54-2.99-0.8-4.48
		c-5.61-0.95-11.61-0.57-17-1.99c-0.15-5.81-0.02-11.62-0.09-17.42c5.55,0.22,11.11,0.48,16.67,0.73c1.22-4.16,2.88-8.34,5.96-11.51
		c2.01-1.97,3.54-4.33,4.79-6.83C496.183,431.546,480.193,431.666,464.213,431.496 M304.553,445.626
		c-0.11,21.87-0.22,43.73-0.32,65.6c5.31-0.41,10.63-0.76,15.96-1.05c0.19-13.19-0.14-26.39,0.33-39.58
		c4.21,13.01,8.24,26.08,12.54,39.06c1.71-0.07,3.41-0.14,5.12-0.19c4.23-13.16,8.39-26.34,12.71-39.47
		c0.24,13.1,0.03,26.21,0.11,39.32c5.35-0.05,10.69,0.22,16.05,0.05c-0.18-21.33-0.13-42.66-0.14-63.99
		c-6.59-0.19-13.19,0.01-19.78-0.14c-3.93,10.57-7.63,21.23-11.39,31.87c-4.09-10.46-7.53-21.17-11.38-31.72
		C317.763,445.466,311.153,445.516,304.553,445.626 M375.303,445.366c-0.01,4.07,0.01,8.14,0.02,12.21
		c1.88,0.02,3.77,0.06,5.67,0.09c0.1,13.35,0.03,26.69,0.17,40.04c-1.91-0.04-3.82-0.11-5.72-0.15c-0.01,4.07-0.02,8.15,0.06,12.24
		c9.57,0.31,19.11,0.96,28.65,1.73c-0.03-4.16-0.07-8.31-0.06-12.46c-1.88-0.15-3.76-0.26-5.63-0.39
		c-0.21-13.54-0.18-27.09-0.26-40.64c1.89,0.03,3.79,0.06,5.69,0.1c-0.05-4.16-0.07-8.31-0.09-12.46
		C394.303,445.526,384.803,445.426,375.303,445.366 M257.983,446.606c-0.19,23.36-0.26,46.72-0.5,70.08
		c13.44-1.95,26.9-3.75,40.43-4.93c0.04-4.16,0.06-8.31,0.11-12.47c-7.74,0.45-15.46,1.28-23.18,2.07
		c0.05-5.45,0.01-10.9,0.13-16.35c7.12-0.63,14.26-1.09,21.4-1.56c0.04-4.12,0.04-8.24,0.07-12.35c-7.22,0.31-14.44,0.72-21.65,1.17
		c0.02-4.37,0.06-8.75,0.1-13.12c7.58-0.33,15.17-0.6,22.75-0.84c0.05-4.19,0.06-8.39,0.06-12.58
		C284.463,445.936,271.223,446.226,257.983,446.606 M411.713,445.806c0.05,8.86,0.1,17.72,0.15,26.58
		c9.24,6.18,18.41,12.46,27.35,19.07c0.03,3.66,0.07,7.32,0.09,10.99c-3.56-0.4-7.13-0.79-10.68-1.29c0.03-2.72,0.01-5.44-0.02-8.16
		c-5.72-0.61-11.46-1.02-17.19-1.48c0.03,6.89,0.09,13.77,0.09,20.66c15.09,1.56,30.13,3.54,45.08,6.14
		c-0.11-10.26,0.02-20.52-0.3-30.78c-8.96-6.58-17.86-13.27-27.17-19.37c-0.13-3-0.15-6-0.14-9c3.72,0.15,7.43,0.32,11.15,0.49
		c0.03,2.46,0.06,4.93,0.1,7.4c5.17,0.32,10.33,0.64,15.5,1.07c0.07-7.08-0.09-14.17-0.07-21.25
		C441.013,446.386,426.363,446.076,411.713,445.806 M150.423,466.436c-2.99,3.88-2.3,9.15-0.9,13.52
		c3.02,9.26,8.2,17.63,13.67,25.61c1.17-0.69,2.33-1.39,3.49-2.11c-0.22,2.23,0.93,4.31,2.82,5.45c5.68,3.63,12.9,4.19,19.34,2.53
		c-5.83-4.01-12.53-7.59-16.07-13.99c-1.44-0.2-2.89-0.4-4.32-0.58c1.67-1.76,3.68-3.38,4.56-5.71c-0.81-3.93-2.8-7.5-4.45-11.13
		c-2.51-4.73-4.83-9.92-9.28-13.17c2.78-3.58,5.82-7.18,10.03-9.12C162.523,459.076,154.853,460.586,150.423,466.436
		 M538.733,457.426c0.28,0.7,0.59,1.41,0.9,2.11l1.29-0.26c3,1.92,5.14,4.85,7.39,7.56c-4.42,3.26-6.76,8.42-9.25,13.15
		c-1.69,3.69-3.73,7.32-4.49,11.34c1.05,2.19,2.88,3.83,4.58,5.53c-1.47,0.19-2.91,0.4-4.36,0.62c-3.51,6.39-10.22,9.92-16,13.95
		c6.39,1.69,13.58,1.1,19.24-2.48c1.86-1.14,3.17-3.19,2.82-5.44c1.17,0.68,2.35,1.36,3.55,2.04c4.93-7.08,9.44-14.52,12.62-22.55
		c1.86-5.01,3.72-11.14,0.52-16.02c-3.69-5.41-10.44-7.56-16.6-8.62C540.233,457.956,539.493,457.646,538.733,457.426
		 M298.083,548.596c13.56,14.04,29.17,26.14,46.09,35.89c1.44,0.89,3.02,1.53,4.69,1.9c-0.07-3.33-0.17-6.66,0.11-9.97
		c14.3-7.37,27.05-17.54,38.38-28.89c-6.53-0.01-13.15-0.67-19.63,0.11c-6.22,4.72-12.32,9.65-19.09,13.58
		c-5.63-3.76-11.25-7.54-16.46-11.87c-1.19-0.85-2.31-2.17-3.91-2.02C318.183,547.286,308.123,547.846,298.083,548.596z"/>
	<path d="M212.423,449.476c5.66-0.23,11.32-0.51,16.99-0.69c-0.16,18.57-0.11,37.14-0.35,55.7c-5.38,1.7-11.27,2.05-16.82,3.33
		C212.293,488.366,212.353,468.916,212.423,449.476z"/>
</g>
<g id="_x23_b4b4b4ff">
	<path class="st2" d="M330.733,123.776c15.83-10.48,33.24-18.51,51.24-24.46c-4.58,3.05-9.55,5.44-14.21,8.37
		c-17.9,11-34.56,24.16-48.78,39.65c-5.01,0.48-9.95,1.46-14.82,2.72C310.623,139.206,320.363,130.776,330.733,123.776z"/>
	<path class="st2" d="M527.863,147.726c6.93,2.28,13.32,5.88,19.76,9.25c42.8,23.61,79.28,58.95,103.22,101.65
		c17.37,30.89,27.99,65.4,32.08,100.56c0.38,3.85,0.6,7.75,1.72,11.48c0.37,5.89-0.01,11.91-0.81,17.78
		c-3.64-15.23-10.01-29.68-17.17-43.55c-16.67-31.64-40.92-59.5-70.93-79.11c-22.1-14.59-47.12-24.47-72.97-30.04
		c5.2-14.53,9.53-29.9,8.45-45.48c-0.48-8.12-4.52-17.01-12.85-19.59C521.393,162.976,524.483,155.286,527.863,147.726z"/>
	<path class="st2" d="M284.363,176.226c9.07-12.71,22.97-21.08,37.04-27.24c-1.1,1.01-2.19,2.02-3.37,2.93
		c-11.27,8.02-21.12,18.38-27.48,30.74c-5.55,10.7-7.2,22.82-8.99,34.58c-3.59,27.56-5.17,55.37-5.7,83.12
		c0.5,2.86,2.05,5.38,3.33,7.94c4.6,8.79,9.91,17.19,15.8,25.16c2.46,3.43,5.59,6.39,7.35,10.29
		c-11.68-11.6-22.15-24.43-31.38-38.06c-1.24-1.92-2.93-3.89-2.36-6.34c1.89-32.47,3.72-65,8.1-97.25
		C278.183,193.246,279.033,183.766,284.363,176.226z"/>
	<path class="st2" d="M158.803,159.746c4.87-2.54,9.81-4.94,14.98-6.8c3.18,7.64,6.29,15.3,9.47,22.94
		c-7.82,2.63-12.11,10.67-12.78,18.51c-1.54,16.01,3.13,31.8,8.28,46.79c-35.09,7.28-68.51,23.28-95.4,47.08
		c-27.87,24.54-48.87,56.54-61.43,91.41c-1.67,4.79-3.38,9.59-4.2,14.62c-0.6-4.29-0.89-8.63-0.81-12.96
		c1.14-10.86,2.03-21.76,4-32.52c4.62-26.55,12.98-52.5,25.33-76.48C70.823,224.286,111.063,184.706,158.803,159.746z"/>
	<path class="st2" d="M250.593,338.276c4.76-6.43,11.34-11.14,17.72-15.84c-2.68,5.7-5.83,11.16-8.63,16.8
		c6.23,13.64,13.62,26.87,22.84,38.75c3.06,4.34,7.3,7.59,10.72,11.6c-7.35-3.67-13.62-9.18-19.22-15.12
		C264.223,363.856,256.513,351.426,250.593,338.276z"/>
	<path class="st2" d="M240.793,360.726c1.7,2.05,3.47,4.06,5.33,5.98c-5.34,7.74-12.14,14.35-17.75,21.9
		c6.55,6.56,6.55,6.56,9.84,9.83c10.73,10.88,24.4,18.95,39.33,22.43c17.16,3.92,35.37,3.3,52.14-2.15
		c15.36-5.03,30.83-10.77,44.09-20.2c4.46-2.79,9.67-4.52,13.33-8.47c-1.34,1.99-2.89,3.88-4.84,5.3
		c-19.23,13.73-41.17,23.83-64.32,28.73c-13.99,3.03-28.5,2.92-42.58,0.56c-11.88-1.53-23.06-6.28-33.56-11.85
		c-9.88-6.39-18.96-14.61-24.14-25.36C225.393,378.546,233.113,369.656,240.793,360.726z"/>
</g>
<g id="_x23_352924ff">
	<path class="st3" d="M517.453,111.406c4.39-0.45,9.77,0.38,12.17,4.55c1.88,4.57-0.74,9.25-2.14,13.56
		c-23.66,63.2-47.85,126.21-71.81,189.3c-0.21,1.39-1.49,1.6-2.38,0.62c-4.65-3.36-9.49-6.47-14.8-8.7c0.76-2.76,2.2-5.3,4.82-6.68
		c0.06-2.92-0.13-5.98,1.23-8.67C468.923,234.096,492.963,172.656,517.453,111.406z"/>
	<path class="st3" d="M173.983,119.006c2.89-2.17,6.56-2.74,10.09-2.68c24.12,61.22,48.4,122.38,72.6,183.57
		c0.54,2.34-0.07,4.83,0.61,7.15c1.1,2.08,2.88,3.73,4.04,5.81c-5.43,3.16-10.55,6.79-15.56,10.56
		c-16.03-41.28-31.59-82.75-47.4-124.12c-8.91-23.73-18.07-47.38-26.71-71.22C170.993,125.016,170.873,120.816,173.983,119.006z"/>
</g>
<g id="_x23_f2f2f2ff">
	<path class="st4" d="M527.663,147.656c1.08-2.42,2.09-4.88,3.1-7.34c28.74,11,55.02,28.05,77.71,48.76
		c25.88,23.72,46.48,53.26,59.22,86c11.87,30.34,17.28,63.07,16.95,95.59c-1.12-3.73-1.34-7.63-1.72-11.48
		c-4.09-35.16-14.71-69.67-32.08-100.56c-23.94-42.7-60.42-78.04-103.22-101.65c-6.44-3.37-12.83-6.97-19.76-9.25L527.663,147.656z"
		/>
	<path class="st4" d="M159.343,150.376c3.8-1.69,7.61-3.4,11.6-4.63c0.89,2.42,1.86,4.81,2.84,7.2c-5.17,1.86-10.11,4.26-14.98,6.8
		c-47.74,24.96-87.98,64.54-112.56,112.59c-12.35,23.98-20.71,49.93-25.33,76.48c-1.97,10.76-2.86,21.66-4,32.52
		c-1.01-42.19,7.21-85.04,26.8-122.63C68.443,210.796,110.533,172.766,159.343,150.376z"/>
</g>
<g id="_x23_e7e7e7ff">
	<path class="st5" d="M166.323,426.196c3.38-2.86,7.4-5.58,12.05-5.27c5.14,6.36,10.36,12.73,14.24,19.95
		c6.65,5.25,8.18,14.44,6.76,22.39c-4.97-2.35-10.27-5.33-12.61-10.57c-1.15-2.39-0.57-5.08-0.16-7.55c-1.48,1-2.82,2.19-4.05,3.49
		C175.163,442.856,169.643,434.936,166.323,426.196z"/>
	<path class="st5" d="M528.653,421.786c1.08-1.62,3.1-0.72,4.61-0.41c3.04,0.88,5.59,2.85,8.01,4.82
		c-3.4,8.72-8.78,16.88-16.42,22.42c-1.11-1.36-2.41-2.54-3.86-3.5c2.98,8.87-5.72,15.22-12.82,18.16
		c-0.83-6.16-0.57-12.88,2.98-18.21c1.2-2,3.33-3.23,4.56-5.2C519.093,433.236,523.903,427.466,528.653,421.786z"/>
	<path class="st5" d="M150.423,466.436c4.43-5.85,12.1-7.36,18.89-8.7c-4.21,1.94-7.25,5.54-10.03,9.12
		c4.45,3.25,6.77,8.44,9.28,13.17c1.65,3.63,3.64,7.2,4.45,11.13c-0.88,2.33-2.89,3.95-4.56,5.71c1.43,0.18,2.88,0.38,4.32,0.58
		c3.54,6.4,10.24,9.98,16.07,13.99c-6.44,1.66-13.66,1.1-19.34-2.53c-1.89-1.14-3.04-3.22-2.82-5.45c-1.16,0.72-2.32,1.42-3.49,2.11
		c-5.47-7.98-10.65-16.35-13.67-25.61C148.123,475.586,147.433,470.316,150.423,466.436z"/>
	<path class="st5" d="M538.733,457.426c0.76,0.22,1.5,0.53,2.21,0.93c6.16,1.06,12.91,3.21,16.6,8.62
		c3.2,4.88,1.34,11.01-0.52,16.02c-3.18,8.03-7.69,15.47-12.62,22.55c-1.2-0.68-2.38-1.36-3.55-2.04c0.35,2.25-0.96,4.3-2.82,5.44
		c-5.66,3.58-12.85,4.17-19.24,2.48c5.78-4.03,12.49-7.56,16-13.95c1.45-0.22,2.89-0.43,4.36-0.62c-1.7-1.7-3.53-3.34-4.58-5.53
		c0.76-4.02,2.8-7.65,4.49-11.34c2.49-4.73,4.83-9.89,9.25-13.15c-2.25-2.71-4.39-5.64-7.39-7.56l-1.29,0.26
		C539.323,458.836,539.013,458.126,538.733,457.426z"/>
</g>
</svg>
