<svg xmlns="http://www.w3.org/2000/svg" viewBox="0 0 600 600">
<circle cx="300" cy="300" r="196.134" fill="#a98c66"/>
<circle cx="300" cy="300" r="191.3203" fill="#1f0d0a"/>
<path d="m409.5616 531.4457c-12.25734-.63329-27.0264-2.42631-39.94682-4.85237-45.99447-8.6277-84.8312-25.89402-112.8259-50.1624-9.26446-8.0307-20.46502-19.29279-28.99798-29.1556-21.0405-24.32445-37.45948-51.491-47.94757-79.3272-2.93019-7.77881-5.57039-16.42451-6.94393-22.74888-.38455-1.77019-.50832-2.14602-.70627-2.14988-.13196-.003-1.88281.17846-3.89039.40243-13.36113 1.48992-27.89336 3.91632-39.71415 6.6307-12.0247 2.76193-26.30907 7.12856-41.2185 12.60056l-2.88281 1.05819-.88219 2.58184c-6.79536 19.89046-11.93178 42.8061-13.91404 62.0626-.14113 1.37159-.27919 2.51586-.30636 2.542-.09403.0904-.31726-1.11834-.4956-2.68333-.92685-8.13305-.50081-23.0708 1.05619-37.0733 4.57593-41.1412 17.84505-80.5893 37.817-112.4202 7.44635-11.86903 15.25517-22.1333 24.45515-32.1458 7.88904-8.58276 18.36421-18.61148 26.78899-25.64127 25.2202-21.0475 52.64025-36.117 81.2019-44.62885 3.79974-1.13251 8.17138-2.26519 12.94998-3.35645 2.54756-.58191 5.014-1.17485 5.48241-1.31761 1.031-.31445.99147-.048.58903-3.96192-1.39813-13.59445-3.95998-28.043-7.22993-40.77018-2.77156-10.78935-7.51574-25.41786-12.56769-38.75398l-1.62696-4.29447-1.34684-.48288c-.7408-.2649-2.62027-.90555-4.17665-1.42415-19.86226-6.61895-40.249-10.9158-58.4093-12.31338-1.37408-.1059-2.51716-.21184-2.54021-.23581-.13692-.14236 7.3064-.72914 11.91455-.93855 3.68463-.16775 14.67416-.03706 19.1867.22772 46.76471 2.74567 91.8664 18.67257 131.659 46.5016 31.98309 22.36468 57.3312 51.3677 75.695 86.6045 8.68988 16.67565 15.99168 36.072 19.49233 51.78257.4506 2.02283.83566 3.74512.85575 3.82779.0777.32476 12.18135-1.26653 21.209-2.78853 16.78243-2.82963 30.43449-6.25559 47.9753-12.0393 3.93592-1.29803 11.38278-3.90105 14.7441-5.15559l2.04527-.76258 1.18023-3.35227c6.82708-19.38803 11.59658-40.76016 13.27168-59.4711.0963-1.07952.18621-2.47653.1993-3.10423.0122-.62769.0492-1.11478.0798-1.083.0881.0921.38631 4.25807.5382 7.52603.46822 10.0884.17373 22.57298-.79489 33.68766-2.91743 33.45641-11.61081 64.4358-25.59428 91.1844-4.0386 7.72565-7.38653 13.32319-12.22987 20.44454-24.30504 35.73826-55.082 64.1892-90.4384 83.5905-15.67893 8.60399-32.1575 15.32254-47.62205 19.42429-2.42215.6422-6.92964 1.67141-8.78703 2.0068-.78579.14201-1.49327.27875-1.57106.3039-.1679.0547-.10862 1.32703.29575 6.32371.86984 10.75451 2.39932 22.0187 4.21915 31.0729 2.35764 11.73064 6.2459 25.32256 11.41166 39.89328 1.63737 4.61793 3.84436 10.41829 4.0373 10.61014.34328.34078 9.54457 3.51937 15.102 5.21686 15.38335 4.69883 27.80279 6.91664 48.2642 8.615 5.61894.46673 6.57863.74992 6.57863.74992-8.43251 1.25797-17.3326 1.45597-24.68967 1.12251m-51.1779-20.55544c-8.10769-16.34557-14.64664-32.298-18.87281-46.0425-3.14935-10.24019-6.37205-23.0713-8.0817-32.1655-.14786-.78589-.31335-1.47992-.36821-1.54201-.055-.0621-1.96043.21855-4.2351.62312-13.50557 2.40438-22.79629 3.57946-32.1391 4.06498-2.34961.12191-8.0019.31998-8.74573.3064-.1071-.0001 2.08794-1.47151 4.87841-3.26524 13.99124-8.99495 24.2282-16.43108 32.80274-23.83635 4.82682-4.16633 13.33543-12.17958 13.23427-12.46364-.0587-.1639-2.057-1.80779-4.06641-3.34474-2.74392-2.09876-5.5502-3.99078-9.81552-6.61787-6.61506-4.07437-9.42838-6.13878-13.34976-9.80392l-1.11087-1.03752 1.0028-.37239c6.15999-2.28724 14.22888-5.88041 19.42903-8.65155 2.48793-1.32584 7.49476-4.1749 9.31743-5.30213l.77014-.4764 1.26439.46861c2.84165 1.05273 5.12452 2.2903 9.17847 4.97566 2.54224 1.68432 7.41346 5.11663 10.69858 7.5388 1.39541 1.02859 2.60678 1.89896 2.69291 1.93366.71404.29014 1.1849-17.59434.71276-27.0675-.2151-4.31666-.89579-13.1325-1.0262-13.28564-.0199-.0235-1.35803.90256-2.97373 2.05824-12.61654 9.0236-27.1071 17.61365-43.4096 25.7353-9.0086 4.48716-20.74944 9.24607-30.44788 12.34134-.95669.30549-1.74072.61164-1.74252.68077-.006.31093 5.40533 8.38407 8.48046 12.64756 2.07813 2.88098 5.54328 7.43013 5.77006 7.57784.0737.0477.13268.1509.13113.23042-.003.15049-.19391-.002-2.99295-2.38119-4.15042-3.52903-9.19163-8.37562-13.80158-13.26716l-3.05572-3.24229-3.23282.90079c-13.55539 3.77779-27.2482 6.51124-41.2146 8.22716-2.8065.3449-9.41886.97726-10.0832.96432-.24721-.004-.44787.0614-.44955.1481-.0001.0863.83933 1.88756 1.86905 4.0035 8.6799 17.83689 21.47748 37.3861 34.84389 53.2438 3.81421 4.52338 6.0637 7.0085 10.7549 11.88356 9.55694 9.93114 17.9685 17.28023 28.2311 24.66496 13.2332 9.52134 34.565 21.1808 53.325 29.1463 3.15656 1.34098 7.14795 2.96856 7.30281 2.97881.0579.002-.60601-1.42594-1.4747-3.17709m37.67642-137.2019c24.43001-12.93837 48.58101-30.81177 66.4578-49.1886 9.92838-10.20351 16.9563-18.90658 24.90671-30.84399 8.85344-13.29052 16.8889-28.2245 23.27746-43.2494 1.4537-3.41972 3.53875-8.61694 3.70882-9.24475l.10718-.39621-.60423.33497c-1.53334.85032-10.35234 5.12463-14.29446 6.92843-13.77599 6.30199-22.56292 9.69353-36.1589 13.95378-9.1383 2.86344-21.227 6.21726-28.87283 8.0085l-1.54461.36184.0639.40811c.0354.22449.34491 1.90325.68811 3.73051 1.88694 10.0415 2.98905 18.73859 3.46594 27.34209.19331 3.4871.43199 12.18088.33155 12.0695-.0304-.0336-1.50097-2.31684-3.26824-5.07287-9.031-14.0905-15.85348-23.2441-25.0825-33.64984-2.98683-3.36709-10.61969-11.39857-10.83751-11.4028-.20199-.005-1.70115 1.50392-2.77606 2.79402-1.82107 2.18151-3.15195 4.12576-6.96478 10.17178-3.6001 5.70883-7.22983 10.75885-10.34369 14.39169l-.8119.9471-.5631-1.51643c-1.54505-4.15905-4.60109-11.41906-6.39597-15.19283-1.76621-3.7149-5.2364-10.13847-7.12165-13.19519l-.70122-1.13486.63752-1.34836c.92042-1.94547 3.04824-5.97006 4.16829-7.88361 1.2454-2.12764 2.08275-3.31297 4.95189-7.0093 1.29384-1.66694 2.65687-3.52058 3.0288-4.11867.65949-1.06085 1.63914-3.16928 1.64644-3.54303.005-.20154-.99756-.3585-4.80007-.75273-2.72509-.28237-14.7565-.5161-18.0993-.35207-3.07942.15153-7.90393.49098-10.18597.71728-2.18508.21644-7.8017.88178-7.86236.93168-.0254.0209.93087 1.29801 2.12508 2.8376 7.25138 9.34821 13.9521 19.3005 19.73694 29.3181 2.62836 4.54818 4.52066 8.17151 6.80325 13.0172 4.33687 9.20319 7.49948 17.44314 10.91471 28.42317 1.16264 3.73884 1.75576 5.45478 1.88296 5.44731.40282-.0239 8.3605-5.44964 14.65675-9.99419 2.52565-1.82284 4.72061-3.40304 4.87827-3.51207.741-.51133-3.46239 4.48951-6.56195 7.80617-2.1618 2.31368-8.0639 8.0662-10.16174 9.90599-.79065.693-1.44409 1.32764-1.45203 1.41023-.008.0822.2721 1.27794.62178 2.65685 3.91771 15.44332 7.26223 35.73 8.18562 49.64973.0968 1.45626.19687 2.72539.22297 2.82357.056.20905 3.79223-1.55988 7.99533-3.78629m-157.1236-10.41521c5.60947-.20661 11.38578-.57589 16.3634-1.04616 2.7311-.25778 9.23593-.98494 9.29258-1.03852.0277-.0266-.48134-.7481-1.13104-1.60393-7.6447-10.0661-16.20141-23.37064-22.90444-35.61461-8.0276-14.65955-12.37508-24.4995-16.28473-36.85538-.57233-1.80911-1.08459-3.2902-1.13838-3.29125-.41937-.009-12.19312 8.17557-16.9663 11.79369-2.17871 1.65102-2.19064 1.61373-.21301-.66828 3.19494-3.68776 9.16653-9.71247 13.80947-13.93123l2.11068-1.91774-.70697-2.64855c-4.0434-15.1424-7.2319-34.988-8.21335-51.1241-.0786-1.29449-.16877-2.37991-.20023-2.41262-.0992-.1032-7.97386 3.72838-11.19277 5.44548-11.55764 6.16712-23.43933 13.83563-34.4075 22.2064-21.33519 16.28586-39.77396 35.42755-54.1673 56.2322-8.50299 12.29101-16.0486 26.1658-22.42443 41.2362-1.90049 4.49286-4.58477 11.36651-4.48064 11.47479.03142.0328 1.1866-.52661 2.56768-1.24292 12.63022-6.54856 25.71963-12.30334 37.1594-16.34073 10.0376-3.54211 26.59828-8.21245 40.0174-11.2849 2.69245-.61659 3.1-.74382 3.10441-.96932.003-.14282-.18525-1.44261-.4179-2.88886-1.06802-6.64345-2.2669-15.73347-2.8258-21.42983-.7015-7.14719-1.41402-19.96468-1.08985-19.61928.0708.076.8311 1.22012 1.68917 2.54202 6.59229 10.15588 13.5974 20.0083 20.1933 28.40567 6.17188 7.86011 16.76763 20.60225 17.22381 20.71603.26633.0666 2.91579-2.51732 3.92787-3.83035 1.08998-1.41456 2.93706-4.39714 5.89179-9.51457 4.17081-7.22441 6.16262-9.97856 10.42378-14.41725.72449-.75487 1.35991-1.32251 1.41205-1.26091.0522.0616.313.75703.57973 1.54524 2.87209 8.48609 6.7535 16.58682 12.81714 26.75138l1.38295 2.31814-.25843.68757c-.4239 1.12737-2.1277 4.57523-3.05178 6.17568-1.20436 2.0855-2.62209 4.1248-5.08255 7.31062-1.16369 1.50671-2.61864 3.46164-3.23352 4.34478-1.18513 1.70251-3.67735 5.61284-3.68052 5.77509-.003.14733 10.0427.14116 14.1053-.008m39.1409-4.12465c13.1158-2.30982 25.37444-5.54459 37.0857-9.78328 10.43282-3.77808 23.4412-9.75824 35.3037-16.23137 3.44495-1.87951 10.23955-5.73621 10.75576-6.10319.2595-.18526.25568-.24501-.18909-3.0304-3.6142-22.61476-10.53813-42.65659-22.96293-66.4844-3.70466-7.10359-10.13787-18.43948-10.46867-18.44594-.65122-.0133-9.88886 1.98758-14.115 3.05663-20.35259 5.14659-41.75789 13.83147-64.4716 26.1573-5.70286 3.09455-8.0588 4.49257-7.99229 4.74341.0331.12633.20752.99548.38728 1.9312 1.95711 10.19975 5.08473 21.57787 8.77123 31.90765 5.78309 16.20578 13.50873 33.59592 21.75773 48.9786 2.20819 4.11639 2.13572 4.0074 2.57664 3.93098.20187-.0349 1.80595-.31696 3.56519-.62668m-34.58922-97.1272c17.56888-12.55543 39.94225-25.0488 57.86446-32.3084 4.52864-1.83488 10.21137-3.89679 14.5121-5.26592 1.18187-.37614 2.14975-.72209 2.15112-.76866.008-.37101-9.70803-14.28543-13.0487-18.68248-.54831-.72185-.52471-.70374 1.92486 1.46748 4.0219 3.5663 8.83844 8.24713 13.55699 13.17965l2.50592 2.61945 1.04316-.31058c4.48544-1.33615 13.77758-3.60345 19.64175-4.792 11.0715-2.24389 22.71096-3.84152 32.56564-4.47078 1.41681-.0904 2.59448-.18223 2.61705-.20394.0977-.0939-4.14263-8.80022-5.84168-11.99482-17.52674-32.95546-42.70882-62.5882-70.3266-82.77-13.62487-9.95442-30.515-19.52224-47.7465-27.0483-5.0314-2.19761-12.60616-5.23238-12.8515-5.1472-.0668.0231.49924 1.15262 1.25849 2.51013 5.1326 9.17802 10.38677 20.0266 13.85861 28.61438 5.16502 12.77728 10.71306 31.1363 14.68014 48.56934.42679 1.87544.79151 3.43458.81128 3.46525.0193.0307 1.98005-.25116 4.35677-.62618 12.0105-1.89465 22.27579-3.08644 35.1073-4.07717 1.97948-.15262 3.76981-.29448 3.97727-.31439.20788-.0199.32946.005.27013.0574-.0594.0517-1.34365.88249-2.85427 1.84267-18.24546 11.61908-30.66924 21.1202-48.53232 37.1239-.93683.83935-1.01627.94901-.8437 1.16531.31596.39585 5.2753 4.22365 7.42142 5.72803 1.10383.77379 4.17614 2.84053 6.82739 4.593 5.56623 3.67959 8.16088 5.48068 10.029 6.96153 1.42155 1.12721 4.23643 3.57545 4.1761 3.6326-.0199.0189-1.69789.73408-3.72864 1.5896-8.82218 3.71546-16.30612 7.33586-24.50833 11.85501l-2.46781 1.36011-1.41239-.59897c-1.53973-.653-5.34384-2.61149-7.0496-3.62896-1.73974-1.03755-2.92768-1.90162-5.68348-4.13442-2.93649-2.37873-3.97832-3.13234-6.07177-4.3929-1.63366-.98352-3.69888-2.022-3.80945-1.91611-.12302.11831-.37383 4.33231-.43984 7.39256-.20589 9.53504.58961 21.34555 2.15664 32.0273l.0663.45201.43889-.31964c.24122-.1757 1.76984-1.27067 3.39607-2.43293"/>
<path d="m424.2643 549.9754c-13.37188-.42964-29.50584-2.06984-43.63844-4.43923-50.3096-8.42517-93.002-26.4171-124.0274-52.2705-10.26738-8.55525-22.71347-20.59092-32.2226-31.1583-23.4476-26.0623-41.91892-55.3204-53.9408-85.4342-3.35873-8.41532-6.41988-17.78155-8.0512-24.64486-.45673-1.92103-.59962-2.328-.81542-2.328-.14387 0-2.04815.23452-4.23131.52127-14.52972 1.90774-30.3158 4.86098-43.1408 8.0704-13.0462 3.26561-28.52092 8.32811-44.6534 14.60855l-3.11928 1.21451-.90657 2.83253c-6.98304 21.82168-12.0938 46.90504-13.84487 67.93348-.12465 1.49781-.25079 2.74779-.27985 2.77686-.10051.10051-.36953-1.21205-.59715-2.91383-1.18297-8.84397-1.03615-25.1326.36312-40.426 4.11257-44.93424 17.73523-88.2081 38.82476-123.3228 7.863-13.0935 16.1551-24.4458 25.96873-35.55323 8.41532-9.52143 19.61833-20.67369 28.65051-28.51403 27.0384-23.4742 56.6014-40.48023 87.5479-50.3638 4.117-1.31502 8.85727-2.64235 14.0419-3.93322 2.76405-.68831 5.43941-1.38696 5.94689-1.5525 1.11695-.3646 1.07951-.0734.55774-4.33034-1.81265-14.78593-4.91173-30.47793-8.74592-44.279-3.24985-11.69966-8.73114-27.54144-14.52036-41.96819l-1.86438-4.64567-1.4781-.49763c-.81296-.27296-2.8749-.9312-4.58211-1.46332-21.78719-6.79138-44.0967-11.0409-63.91797-12.17807-1.49978-.08622-2.74779-.17737-2.77341-.20299-.15224-.15224 7.94725-.94993 12.96491-1.27609 4.012-.26113 15.99156-.35228 20.91511-.15963 51.024 1.99839 100.5157 18.39742 144.4744 47.88059 35.3315 23.69395 63.5731 54.76361 84.3355 92.7754 9.82493 17.98897 18.1949 38.97257 22.34395 56.02.53408 2.19498.99032 4.06379 1.01397 4.15346.0917.35228 13.24871-1.63921 23.0549-3.4898 18.2299-3.44052 33.0355-7.4644 52.0291-14.1405 4.26185-1.4983 12.32242-4.49342 15.95904-5.9321l2.21272-.87455 1.215-3.67849c7.0284-21.27479 11.77208-44.66819 13.19992-65.0955.0823-1.17854.15027-2.70295.15126-3.38731 0-.68436.0296-1.21598.0636-1.18199.0985.0985.51142 4.63237.74644 8.19065.72476 10.98474.66909 24.59706-.15027 36.73078-2.46843 36.52385-11.28431 70.4709-25.95544 99.9196-4.23722 8.50548-7.76692 14.67704-12.89396 22.54103-25.72879 39.46527-58.66579 71.1262-96.786 93.0218-16.90453 9.71013-34.72057 17.38245-51.4871 22.1814-2.62609.75137-7.51663 1.96883-9.53374 2.37383-.85336.17146-1.62148.33553-1.70573.3646-.18181.0631-.0902 1.44854.45673 6.88548 1.17657 11.70212 3.08283 23.94571 5.25859 33.77459 2.81874 12.73432 7.34517 27.46457 13.28467 43.2344 1.88261 4.99795 4.41114 11.27248 4.62547 11.47745.38135.3641 10.47677 3.63267 16.5695 5.36451 16.86512 4.79398 30.44738 6.94707 52.78295 8.36309 6.13362.38924 7.18554.67747 7.18554.67747-9.16327 1.5502-18.85868 1.95515-26.88373 1.7481m-56.2121-21.31421c-9.18343-17.64161-16.64883-34.88808-21.54676-49.77748-3.64992-11.0931-7.43484-25.0085-9.49137-34.88316-.17786-.85335-.37297-1.6062-.43407-1.67271-.0611-.0665-2.13191.27985-4.60231.7691-14.66768 2.90742-24.76803 4.38552-34.93982 5.11324-2.5581.18279-8.71389.51881-9.52488.5198-.11676 0 2.24425-1.64808 5.24726-3.66224 15.0569-10.1003 26.0555-18.42205 35.2428-26.67478 5.17187-4.6432 14.27451-13.55713 14.15823-13.86457-.0675-.17738-2.28022-1.92646-4.50279-3.55878-3.03503-2.22897-6.13362-4.2313-10.83792-7.0037-7.2959-4.29979-10.40582-6.48984-14.75735-10.40089l-1.23273-1.1071 1.08492-.42717c6.66475-2.62363 15.38209-6.71107 20.9905-9.84168 2.68324-1.49781 8.0793-4.70923 10.0417-5.97646l.82921-.53556 1.38794.48383c3.11928 1.0869 5.63353 2.38713 10.1087 5.22755 2.80642 1.7816 8.18818 5.41871 11.81988 7.98864 1.54264 1.09133 2.88131 2.0141 2.9759 2.05012.78438.30104.91741-19.2.20152-29.51421-.32617-4.69986-1.2554-14.29322-1.40075-14.45729-.0222-.0251-1.46085 1.01249-3.19713 2.30632-13.55812 10.1023-29.1678 19.77206-46.76215 28.96978-9.72245 5.08171-22.41687 10.51767-32.92074 14.0971-1.03615.35327-1.88409.70358-1.88458.77896 0 .33898 6.06908 9.0223 9.51108 13.60345 2.32604 3.09563 6.19915 7.97977 6.44945 8.13595.0813.0503.14781.16161.14781.24832 0 .16407-.21137.002-3.31243-2.53149-4.59787-3.75782-10.19494-8.93265-15.32297-14.16562l-3.39913-3.4686-3.50409 1.05043c-14.6928 4.40523-29.55756 7.67528-44.74208 9.84218-3.05129.43554-10.24422 1.26525-10.96849 1.26525-.26951 0-.48679.0764-.48679.17097 0 .0941.95485 2.03928 2.12206 4.32344 9.83873 19.25472 24.2014 40.2881 39.1056 57.2862 4.25299 4.84866 6.75738 7.50924 11.9736 12.7225 10.62655 10.62015 19.94991 18.45063 31.2914 26.2806 14.62432 10.0954 38.1202 22.34887 58.73477 30.63116 3.46861 1.39434 7.85314 3.08331 8.0221 3.09119.0631 0-.69076-1.54116-1.67469-3.43116m38.1448-150.3277c26.34959-14.61989 52.2903-34.61218 71.3824-55.0198 10.6034-11.33112 18.0777-20.96537 26.48854-34.1441 9.36623-14.67261 17.80618-31.1189 24.44925-47.62931 1.51161-3.75783 3.67357-9.46625 3.84553-10.15406l.10839-.43407-.65135.3779c-1.65301.95929-11.17345 5.805-15.43136 7.85463-14.87954 7.1609-24.38373 11.0439-39.1105 15.9758-9.89834 3.31488-23.0017 7.22692-31.2963 9.34159l-1.67568.42717.0783.44343c.0434.24389.41633 2.06688.82922 4.05098 2.26987 10.90345 3.65583 20.35836 4.35842 29.72459.28478 3.79625.72969 13.26595.61785 13.14671-.034-.036-1.68504-2.49306-3.66963-5.45911-10.14174-15.1643-17.77169-24.99517-28.0509-36.1395-3.32671-3.60607-11.81593-12.19679-12.0534-12.19679-.22024 0-1.82201 1.67518-2.96606 3.10401-1.93828 2.4162-3.3474 4.56339-7.37424 11.23356-3.80216 6.29819-7.65064 11.879-10.96701 15.90436l-.86469 1.04945-.64593-1.64069c-1.77224-4.49983-5.25711-12.34706-7.29343-16.42169-2.0038-4.0111-5.92226-10.93794-8.0419-14.22918l-.78832-1.22189.66613-1.48303c.96175-2.1398 3.19516-6.57114 4.37517-8.68039 1.31206-2.34525 2.19942-3.65485 5.24775-7.74426 1.37463-1.84417 2.82071-3.89331 3.21339-4.55304.69618-1.17016 1.71903-3.48881 1.71903-3.89627 0-.21974-1.09478-.36952-5.24726-.71836-2.9759-.2498-16.0931-.24881-19.73263.0001-3.35282.23059-8.60353.70308-11.0858.99821-2.37678.28232-8.4838 1.12681-8.54884 1.18248-.0271.0232 1.04206 1.39484 2.37629 3.04735 8.10147 10.0338 15.61564 20.73774 22.1331 31.53231 2.96113 4.90089 5.10043 8.80947 7.69105 14.0419 4.92207 9.93776 8.54391 18.8507 12.49931 30.74448 1.34655 4.04999 2.02943 5.90747 2.16788 5.89663.4385-.0345 8.99571-6.11687 15.76098-11.2035 2.71379-2.04027 5.07234-3.80907 5.24183-3.93126.7967-.57301-3.678 4.96642-6.9855 8.64689-2.30682 2.56746-8.61683 8.96221-10.86403 11.0118-.84695.77206-1.5456 1.47761-1.5525 1.56778-.007.0897.3237 1.38695.73412 2.88229 4.59788 16.74737 8.67399 38.78534 9.97619 53.93587.13648 1.58502.27247 2.96605.30301 3.07248.0655.22664 4.09976-1.78062 8.63309-4.29635m-171.4596-8.0113c6.10899-.3444 12.39633-.86962 17.81111-1.48795 2.97098-.33898 10.0447-1.26969 10.1053-1.32931.0296-.0296-.54049-.80507-1.26673-1.72396-8.54539-10.80786-18.1535-25.1257-25.71894-38.3271-9.0603-15.80581-14.0075-26.4373-18.53094-39.82001-.66219-1.95947-1.25195-3.56272-1.31058-3.56272-.45723 0-13.1147 9.16915-18.23975 13.21373-2.33934 1.84565-2.35314 1.80525-.24635-.72378 3.40357-4.08695 9.78354-10.77978 14.7539-15.4762l2.25952-2.13487-.82675-2.87146c-4.72844-16.41676-8.62521-37.97731-10.0378-55.5421-.11332-1.40912-.23452-2.59012-.2695-2.6251-.11037-.11037-8.61092 4.23278-12.0825 6.17254-12.46481 6.96678-25.2509 15.57671-37.0264 24.93259-22.90562 18.20231-42.59392 39.45542-57.83805 62.4349-9.0056 13.57585-16.9341 28.85744-23.56239 45.4171-1.97573 4.93686-4.75505 12.48502-4.63926 12.60081.03498.035 1.28201-.59913 2.77193-1.40913 13.62562-7.40528 27.76857-13.95523 40.1501-18.59843 10.86404-4.07365 28.8131-9.51552 43.3724-13.14918 2.92122-.7292 3.36268-.87652 3.36268-1.12237 0-.1557-.23255-1.56827-.51684-3.13949-1.30516-7.21756-2.80494-17.0987-3.53512-23.29485-.91642-7.77432-1.96538-21.72807-1.60473-21.35855.0788.0813.9317 1.31206 1.89493 2.73449 7.40035 10.92808 15.24414 21.5167 22.61099 30.52818 6.89336 8.43503 18.71176 22.0966 19.21135 22.2109.29168.067 3.12421-2.80544 4.19929-4.25792 1.15784-1.56481 3.10746-4.85457 6.21886-10.49451 4.39192-7.96203 6.50413-11.0059 11.0537-15.93391.77354-.83809 1.45396-1.47022 1.5121-1.4042.0581.066.3572.81838.66465 1.67173 3.31045 9.18738 7.71272 17.9333 14.53711 28.88208l1.55644 2.497-.26704.75482c-.43801 1.23766-2.22159 5.0315-3.19467 6.79531-1.26821 2.29845-2.76996 4.55107-5.38373 8.0754-1.23619 1.6668-2.78031 3.82828-3.43166 4.80382-1.2554 1.88064-3.88839 6.19521-3.88839 6.37209 0 .16062 10.9478-.0596 15.37224-.30892m42.56928-5.32707c14.24495-2.79608 27.53602-6.58198 40.2092-11.45035 11.28973-4.33921 25.33956-11.13305 38.13-18.43979 3.71447-2.12157 11.0375-6.46915 11.59225-6.88006.27887-.20743.27345-.27247-.27049-3.29863-4.41952-24.56947-12.39141-46.2645-26.43878-71.96869-4.18844-7.66296-11.44049-19.88045-11.80115-19.88045-.70998 0-10.73494 2.3763-15.31804 3.6312-22.0715 6.0415-45.2151 15.96151-69.7072 29.87733-6.14938 3.49374-8.68728 5.06742-8.60944 5.33939.0389.13697.24734 1.08049.46314 2.09644 2.34969 11.0744 6.0001 23.40818 10.23732 34.58754 6.64702 17.53864 15.43629 36.3268 24.75325 52.91598 2.49405 4.43923 2.41275 4.32196 2.89166 4.22934.21925-.0424 1.96144-.38382 3.87213-.75876m-39.76085-105.1171c18.88026-14.0567 42.99793-28.148 62.3758-36.44058 4.89645-2.09595 11.0458-4.46386 15.70382-6.0474 1.28004-.43505 2.32752-.83266 2.32801-.88341 0-.40451-10.88374-15.36239-14.61792-20.0834-.61291-.77502-.5868-.7558 2.12896 1.55841 4.45894 3.80118 9.80769 8.80012 15.0549 14.0754l2.78671 2.8015 1.13026-.36066c4.85999-1.55151 14.93866-4.21998 21.30435-5.63994 12.0184-2.68078 24.66948-4.66931 35.39606-5.56455 1.54215-.1286 2.82366-.25374 2.8478-.27788.10445-.10446-4.70183-9.50271-6.62139-12.94816-19.80162-35.54338-47.87566-67.3028-78.4033-88.7106-15.0604-10.55906-33.67112-20.62739-52.61051-28.46329-5.53007-2.2881-13.8498-5.43448-14.1154-5.33643-.0724.02661.56857 1.24555 1.42489 2.70887 5.78873 9.89342 11.74547 21.60489 15.71171 30.89033 5.90057 13.8153 12.3372 33.7056 17.0312 52.62036.50501 2.03485.93563 3.72629.95781 3.7593.0217.033 2.1526-.31582 4.73484-.77502 13.0492-2.32012 24.2113-3.83715 38.1744-5.18961 2.15408-.20841 4.10222-.40106 4.32788-.42717.22614-.0261.35917-.0001.29562.0567-.0636.0576-1.44559.99033-3.0715 2.06885-19.63754 13.0506-32.97542 23.66931-52.103 41.49027-1.0031.93465-1.08739 1.05585-.89474 1.28791.35277.42471 5.83898 4.49096 8.20986 6.08485 1.21943.81985 4.61167 3.0069 7.53831 4.86048 6.14446 3.89184 9.0105 5.79958 11.0779 7.37375 1.57319 1.19825 4.69297 3.8066 4.62843 3.87016-.0212.0212-1.83482.83611-4.0298 1.81166-9.53571 4.23673-17.61501 8.34141-26.45799 13.44085l-2.66058 1.53476-1.552-.62277c-1.69193-.67894-5.87939-2.73251-7.76003-3.80512-1.91808-1.09379-3.23112-2.0102-6.28192-4.38503-3.25084-2.53001-4.40228-3.32917-6.71058-4.65848-1.80131-1.03713-4.07413-2.12501-4.19238-2.0073-.13155.13155-.31533 4.72943-.32223 8.066-.0217 10.39597 1.09626 23.2505 3.0311 34.85853l.0818.49122.47152-.3577c.25916-.19659 1.90182-1.42242 3.64943-2.72365" fill="#a98c66"/>
</svg>